<svg xmlns="http://www.w3.org/2000/svg" xmlns:xlink="http://www.w3.org/1999/xlink" fill="none" version="1.1" width="128" height="128" viewBox="0 0 128 128"><defs><clipPath id="master_svg0_294_32437/294_11820"><rect x="0" y="0" width="128" height="128" rx="0"/></clipPath></defs><g clip-path="url(#master_svg0_294_32437/294_11820)"><g><path d="M66.577516796875,120.27750732421875L18.735026796875,119.86250732421875C15.485026796875001,119.86250732421875,12.857526796875,117.23500732421874,12.857526796875,113.98500732421874L11.267529796875,103.26750732421876C11.060028996875,101.74751732421875,10.990029296875,100.15750732421876,11.267529796875,98.56500732421875C11.820028796875,95.04000732421875,13.480026796875,92.75750732421875,17.560026796875,92.75750732421875L70.657516796875,92.75750732421875L72.52501679687501,114.39750732421875C72.455016796875,117.64750732421875,69.827516796875,120.27500732421875,66.580016796875,120.27500732421875L66.577516796875,120.27750732421875Z" fill="#165DFF" fill-opacity="1"/></g><g><path d="M16.31511171875,92.82998779296875Q12.09756171875,110.87498779296875,37.95511171875,110.87498779296875Q63.81261171875,110.87498779296875,67.75261171875,110.52998779296875L64.15761171874999,92.20748779296875L16.31511171875,92.82998779296875ZM13.13511171875,31.434987792968748L34.29011171875,31.297487792968752L34.29011171875,17.33248679296875L6.63507171875,16.98748779296875C2.55506771875,16.98748779296875,2.90256741875,20.997487792968748,3.11006771875,25.14498779296875C3.18006771875,26.11248779296875,3.38756771875,28.117487792968753,3.59506771875,28.87748779296875C4.2175717187499995,30.95248779296875,5.185071718750001,31.367487792968753,7.32757171875,31.434987792968748L13.13511171875,31.434987792968748Z" fill="#0C296E" fill-opacity="1"/></g><g><path d="M95.20234375,110.39251220703125L37.334843750000005,110.39251220703125C33.25484375,110.39251220703125,29.72984375,107.55751220703125,28.89984375,103.54751220703125L15.62484375,29.43001220703125C14.86484375,25.07501220703125,12.58234375,21.13251220703125,9.19484375,18.23001320703125L8.08984375,17.26251220703125L81.99734375,17.26251220703125C85.72984375,18.16251220703125,88.63484375,24.45251220703125,89.53234375,29.29251220703125L100.38734375,99.33001220703125C101.21734375,105.20751220703124,101.00984375,110.11501220703126,95.20234375,110.39251220703125Z" fill="#FFFFFF" fill-opacity="1"/><path d="M100.52074375,107.04121220703125Q101.37254375,104.51871220703126,100.63484375,99.29501220703125L100.63434375,99.29171220703125L89.77944375,29.25421220703125Q89.77884375,29.25061220703125,89.77814375,29.24691220703125Q89.01554375,25.13370220703125,87.04514375,21.676232207031248Q84.76344375,17.67233320703125,82.05594375,17.01947720703125Q82.02704375,17.01251220703125,81.99734375,17.01251220703125L8.08984375,17.01251220703125Q8.03579675,17.01251220703125,7.98657575,17.03483720703125Q7.93735575,17.05716220703125,7.90175275,17.09782520703125Q7.86899375,17.13523920703125,7.85304775,17.18234120703125Q7.83709975,17.22944290703125,7.84039175,17.27906190703125Q7.84368375,17.32868090703125,7.86571375,17.37326320703125Q7.88774375,17.41784520703125,7.92515675,17.45060320703125L9.03217975,18.41985220703125Q11.54715375,20.57474220703125,13.178463749999999,23.41000220703125Q14.81768375,26.25900220703125,15.378763750000001,29.47411220703125L28.65374375,103.59161220703125Q28.65434375,103.59491220703126,28.65504375,103.59821220703125Q29.29454375,106.68781220703124,31.74134375,108.66811220703126Q34.180743750000005,110.64251220703125,37.334843750000005,110.64251220703125L95.20234375,110.64251220703125Q95.20834375,110.64251220703125,95.21424375,110.64221220703125Q99.37194375,110.44351220703125,100.52074375,107.04121220703125ZM100.13974375,99.36501220703126L100.14034375,99.36831220703125Q100.86054375,104.47191220703125,100.04704375,106.88131220703124Q99.00814375,109.95811220703125,95.19624375,110.14251220703125L37.334843750000005,110.14251220703125Q34.35774375,110.14241220703126,32.05584375,108.27941220703126Q29.75054375,106.41361220703125,29.14604375,103.50341220703125L29.14474375,103.49681220703125L15.87092375,29.38591220703125Q15.29507375,26.08613220703125,13.61184375,23.160652207031248Q11.937693750000001,20.25094220703125,9.35750375,18.04016920703125L8.75487175,17.51251220703125L81.96714375,17.51251220703125Q84.44844375,18.12946420703125,86.61074375,21.923792207031248Q88.53754375,25.30483220703125,89.28514375,29.33081220703125L89.28644375,29.33811220703125L100.13974375,99.36501220703126Z" fill-rule="evenodd" fill="#0C296E" fill-opacity="1"/></g><g><path d="M24.542509765625,27.15001708984375C26.185009765625,27.15001708984375,27.517509765625,25.820017089843752,27.517509765625,24.18001708984375C27.517509765625,22.54001708984375,26.187509765625002,21.20501708984375,24.547509765625,21.20501708984375L24.542509765625,21.20501708984375C22.900009765625,21.20501708984375,21.570013045625,22.53751708984375,21.572513580325,24.18001708984375C21.572513580325,25.820017089843752,22.902509765625,27.15001708984375,24.542509765625,27.15001708984375ZM35.052509765625004,27.15001708984375C36.695009765625,27.15001708984375,38.027509765625,25.820017089843752,38.027509765625,24.18001708984375C38.027509765625,22.53751708984375,36.697509765625,21.20501708984375,35.057509765625,21.20501708984375L35.052509765625004,21.20501708984375C33.410009765625,21.20501708984375,32.080009765625,22.53751708984375,32.082509765625,24.18001708984375C32.082509765625,25.820017089843752,33.412509765625,27.15001708984375,35.052509765625004,27.15001708984375Z" fill="#FFFFFF" fill-opacity="1"/><path d="M21.322513765625,24.18001708984375L21.322513765625,24.18039708984375Q21.322647765625,25.51370708984375,22.265736765625,26.45679708984375Q23.208959765625,27.40001708984375,24.542509765625,27.40001708984375Q25.877849765625,27.40001708984375,26.822569765625,26.45694708984375Q27.767509765625,25.51365708984375,27.767509765625,24.18001708984375Q27.767509765625,22.84615708984375,26.824489765625,21.90094608984375Q25.880759765625,20.95501708984375,24.547509765625,20.95501708984375L24.542509765625,20.95501708984375Q23.206999765625,20.95501708984375,22.263707765625,21.89995708984375Q21.320614765625,22.84469708984375,21.322513765625,24.18001708984375ZM31.832509765624998,24.18001708984375L31.832509765624998,24.18039708984375Q31.832609765625,25.51370708984375,32.775709765625,26.45679708984375Q33.718909765625,27.40001708984375,35.052509765625004,27.40001708984375Q36.387809765625,27.40001708984375,37.332609765625,26.45694708984375Q38.277509765625,25.51364708984375,38.277509765625,24.18001708984375Q38.277509765625,22.84467708984375,37.334409765625,21.89995708984375Q36.391109765625,20.95501708984375,35.057509765625,20.95501708984375L35.052509765625004,20.95501708984375Q33.717009765625,20.95501708984375,32.773709765625,21.89995708984375Q31.830609765625,22.84469708984375,31.832509765624998,24.18001708984375ZM22.619289765625,26.103237089843752Q21.822513765625,25.30646708984375,21.822513765625,24.18001708984375L21.822513765625,24.17963708984375Q21.820795765625,23.05136708984375,22.617569765625,22.253207089843748Q23.414359765625,21.45501708984375,24.542509765625,21.45501708984375L24.547509765625,21.45501708984375Q25.673309765625,21.45501708984375,26.470529765625,22.25408708984375Q27.267509765625,23.05292708984375,27.267509765625,24.18001708984375Q27.267509765625,25.30629708984375,26.469329765624998,26.10308708984375Q25.670999765624998,26.90001708984375,24.542509765625,26.90001708984375Q23.416069765625,26.90001708984375,22.619289765625,26.103237089843752ZM33.129309765625,26.103237089843752Q32.332509765625,25.30646708984375,32.332509765625,24.18001708984375L32.332509765625,24.17963708984375Q32.330809765625,23.05136708984375,33.127609765624996,22.253207089843748Q33.924309765625,21.45501708984375,35.052509765625004,21.45501708984375L35.057509765625,21.45501708984375Q36.183809765625,21.45501708984375,36.980609765625,22.253207089843748Q37.777509765625,23.05152708984375,37.777509765625,24.18001708984375Q37.777509765625,25.30628708984375,36.979309765625004,26.10308708984375Q36.181009765625,26.90001708984375,35.052509765625004,26.90001708984375Q33.926009765625,26.90001708984375,33.129309765625,26.103237089843752Z" fill-rule="evenodd" fill="#0C296E" fill-opacity="1"/></g><g><path d="M80.267451171875,41.73750122070312L32.492451171875,41.73750122070312L31.387451171875,36.345001220703125L79.229951171875,36.345001220703125L80.267451171875,41.73750122070312ZM82.342451171875,52.10750122070313L34.567451171875,52.10750122070313L33.462451171875,46.71500122070312L81.30495117187499,46.71500122070312L82.342451171875,52.10750122070313Z" fill="#FFFFFF" fill-opacity="1"/><path d="M80.512951171875,41.69026122070312L79.475451171875,36.297768020703124Q79.467251171875,36.254971820703126,79.444951171875,36.21748622070312Q79.422751171875,36.18000022070313,79.389151171875,36.152247220703124Q79.35555117187499,36.12449422070313,79.314551171875,36.10974722070313Q79.273551171875,36.095001220703125,79.229951171875,36.095001220703125L31.387451171875,36.095001220703125Q31.362100271875,36.095001220703125,31.337265471875,36.10009022070312Q31.288549671875,36.11007322070313,31.247362171875,36.13793822070313Q31.206175171875,36.165803220703125,31.178786171875,36.207309220703124Q31.151398171875,36.24881572070313,31.141978171875,36.297643420703125Q31.132557171875,36.34647114070312,31.142540171875,36.395186920703125L32.247540171875,41.78768122070313Q32.256210171875,41.830001220703124,32.278576171875,41.86695122070313Q32.300942171875,41.903901220703126,32.334410171875,41.931211220703126Q32.367878171875,41.95851122070312,32.408571171875,41.97301122070313Q32.449261171875,41.98750122070312,32.492451171875,41.98750122070312L80.267451171875,41.98750122070312Q80.29125117187499,41.98750122070312,80.314651171875,41.98300122070312Q80.416351171875,41.96343122070313,80.474451171875,41.87769122070313Q80.532551171875,41.791951220703126,80.512951171875,41.69026122070312ZM79.023451171875,36.595001220703125L79.96475117187501,41.48750122070312L32.696421171875,41.48750122070312L31.693874171875,36.595001220703125L79.023451171875,36.595001220703125ZM82.587951171875,52.060301220703124L81.550451171875,46.667801220703126Q81.542251171875,46.625001220703126,81.519951171875,46.587501220703125Q81.497751171875,46.55000122070312,81.464151171875,46.522201220703124Q81.43055117187501,46.49450122070313,81.389551171875,46.47970122070313Q81.348551171875,46.46500122070312,81.30495117187499,46.46500122070312L33.462451171875,46.46500122070312Q33.437101171875,46.46500122070312,33.412261171875,46.47010122070313Q33.363551171875,46.480101220703126,33.322361171875,46.507901220703125Q33.281171171875,46.53580122070312,33.253781171875,46.57730122070313Q33.226391171875,46.618801220703126,33.216971171875,46.667601220703126Q33.207551171875,46.71650122070312,33.217541171875,46.765201220703126L34.322541171875,52.157701220703125Q34.331211171875,52.20000122070313,34.353571171875004,52.236901220703125Q34.375941171875,52.273901220703124,34.409411171875,52.30120122070313Q34.442871171875,52.328501220703124,34.483561171875,52.34300122070312Q34.524251171875,52.35750122070313,34.567451171875,52.35750122070313L82.342451171875,52.35750122070313Q82.366251171875,52.35750122070313,82.389651171875,52.35300122070312Q82.49135117187501,52.333401220703124,82.549451171875,52.24770122070312Q82.607551171875,52.162001220703125,82.587951171875,52.060301220703124ZM81.098451171875,46.96500122070312L82.039751171875,51.85750122070313L34.771411171875,51.85750122070313L33.768871171875,46.96500122070312L81.098451171875,46.96500122070312Z" fill-rule="evenodd" fill="#0C296E" fill-opacity="1"/></g><g><path d="M108.82236328125,36.94000244140625Q109.97186328125,36.94000244140625,111.02886328125,37.35499544140625L111.21156328125,36.88958344140625Q110.06656328125,36.44000244140625,108.82236328125,36.44000244140625L108.79586328125,36.44000244140625L108.79586328125,36.94000244140625L108.82236328125,36.94000244140625ZM90.98486328125,36.94000244140625L92.17225328125,36.94000244140625L92.17225328125,36.44000244140625L90.98486328125,36.44000244140625L90.98486328125,36.94000244140625ZM94.54705328125,36.94000244140625L96.92186328125,36.94000244140625L96.92186328125,36.44000244140625L94.54705328125,36.44000244140625L94.54705328125,36.94000244140625ZM99.29667328125,36.94000244140625L101.67146328125,36.94000244140625L101.67146328125,36.44000244140625L99.29667328125,36.44000244140625L99.29667328125,36.94000244140625ZM104.04626328125,36.94000244140625L106.42106328125,36.94000244140625L106.42106328125,36.44000244140625L104.04626328125,36.44000244140625L104.04626328125,36.94000244140625ZM112.94516328125,38.56918244140625Q113.78616328125,39.35996244140625,114.27606328125,40.405472441406246L114.72876328125,40.19331244140625Q114.19836328125,39.06122244140625,113.28766328125,38.20493244140625L112.94516328125,38.56918244140625ZM114.85326328125001,42.62206244140625L115.15676328125,44.97739244140625L115.65266328125,44.91349244140625L115.34916328125,42.55816244140625L114.85326328125001,42.62206244140625ZM115.46036328125,47.33270244140625L115.76386328125,49.68810244140625L116.25976328125,49.624202441406254L115.95626328125,47.26880244140625L115.46036328125,47.33270244140625ZM116.06736328125,52.04340244140625L116.37086328125,54.39870244140625L116.86676328125,54.334802441406254L116.56326328125,51.979502441406254L116.06736328125,52.04340244140625ZM116.67436328125,56.75400244140625L116.97786328125,59.109402441406246L117.47376328125,59.04550244140625L117.17026328125,56.69010244140625L116.67436328125,56.75400244140625ZM117.28136328125001,61.464702441406246L117.58486328125,63.820002441406245L118.08076328125,63.75610244140625L117.77726328125,61.40080244140625L117.28136328125001,61.464702441406246ZM117.88836328125001,66.17540244140625L118.19186328125,68.53070244140625L118.68776328125,68.46680244140626L118.38426328125,66.11150244140626L117.88836328125001,66.17540244140625ZM118.49536328125001,70.88600244140625L118.79886328125,73.24130244140625L119.29476328125,73.17740244140626L118.99126328125,70.82210244140626L118.49536328125001,70.88600244140625ZM119.10246328125,75.59670244140625L119.40596328125,77.95200244140625L119.90186328125,77.88810244140625L119.59836328125,75.53280244140625L119.10246328125,75.59670244140625ZM119.70946328125,80.30730244140625L120.01296328125,82.66270244140625L120.50886328125,82.59880244140625L120.20536328125,80.24340244140626L119.70946328125,80.30730244140625ZM120.49806328125,86.42750244140625L120.11296328125,86.42750244140625L120.11296328125,86.92750244140625L121.06666328125,86.92750244140625L120.81236328125,84.95410244140625L120.31646328125001,85.01800244140625L120.49806328125,86.42750244140625ZM98.73977328125,86.42750244140625L97.55236328125,86.42750244140625L97.55236328125,86.92750244140625L98.73977328125,86.92750244140625L98.73977328125,86.42750244140625ZM103.48936328125001,86.42750244140625L101.11456328125,86.42750244140625L101.11456328125,86.92750244140625L103.48936328125001,86.92750244140625L103.48936328125001,86.42750244140625ZM108.23896328125,86.42750244140625L105.86416328125,86.42750244140625L105.86416328125,86.92750244140625L108.23896328125,86.92750244140625L108.23896328125,86.42750244140625ZM112.98856328125,86.42750244140625L110.61376328125,86.42750244140625L110.61376328125,86.92750244140625L112.98856328125,86.92750244140625L112.98856328125,86.42750244140625ZM117.73816328125,86.42750244140625L115.36336328125,86.42750244140625L115.36336328125,86.92750244140625L117.73816328125,86.92750244140625L117.73816328125,86.42750244140625Z" fill-rule="evenodd" fill="#0C296E" fill-opacity="1"/></g><g><path d="M105.50236328125,92.555L51.504863281249996,92.555C47.90986328125,92.555,44.86736328125,89.72,44.31487328125,85.91749999999999L39.19987108125,50.3125C38.50737028125,45.542500000000004,41.89737328125,41.1875,46.38987328125,41.1875L100.38736328125,41.1875C103.98236328125,41.1875,107.02486328125,44.0225,107.57736328125,47.825L112.69236328125,83.43C113.38486328125,88.27000000000001,109.92736328125,92.555,105.50236328125,92.555Z" fill="#165DFF" fill-opacity="1"/></g><g><path d="M94.30252929687501,68.21748779296875Q94.30252929687501,68.59598779296874,94.283929296875,68.97398779296876Q94.265429296875,69.35198779296874,94.228329296875,69.72868779296874Q94.19122929687501,70.10528779296875,94.135629296875,70.47968779296875Q94.080129296875,70.85408779296876,94.006229296875,71.22528779296874Q93.932429296875,71.59648779296876,93.840429296875,71.96358779296875Q93.748529296875,72.33078779296875,93.638629296875,72.69298779296875Q93.528829296875,73.05508779296875,93.401229296875,73.41148779296876Q93.273729296875,73.76788779296875,93.128929296875,74.11748779296875Q92.984129296875,74.46718779296876,92.82222929687501,74.80928779296875Q92.66042929687501,75.15148779296875,92.482029296875,75.48528779296875Q92.303629296875,75.81898779296876,92.10902929687501,76.14368779296875Q91.914429296875,76.46828779296875,91.704229296875,76.78298779296875Q91.493929296875,77.09768779296874,91.268429296875,77.40168779296874Q91.043029296875,77.70568779296875,90.80292929687499,77.99828779296875Q90.56282929687501,78.29078779296876,90.308629296875,78.57128779296875Q90.054429296875,78.85168779296875,89.786829296875,79.11928779296875Q89.519229296875,79.38688779296875,89.238829296875,79.64108779296875Q88.95832929687501,79.89528779296876,88.665729296875,80.13538779296874Q88.373229296875,80.37548779296876,88.069229296875,80.60098779296875Q87.76522929687499,80.82638779296875,87.450529296875,81.03668779296875Q87.135829296875,81.24698779296875,86.811229296875,81.44148779296876Q86.486529296875,81.63608779296875,86.152829296875,81.81448779296875Q85.819029296875,81.99288779296876,85.476829296875,82.15478779296875Q85.13472929687501,82.31658779296875,84.785029296875,82.46138779296875Q84.435329296875,82.60618779296875,84.079029296875,82.73378779296876Q83.722629296875,82.86128779296875,83.360529296875,82.97108779296875Q82.998329296875,83.08098779296876,82.631129296875,83.17298779296875Q82.26402929687501,83.26488779296875,81.892829296875,83.33878779296874Q81.521629296875,83.41258779296875,81.147229296875,83.46808779296875Q80.772829296875,83.52368779296876,80.39622929687499,83.56078779296875Q80.01952929687499,83.59788779296875,79.641529296875,83.61638779296875Q79.26352929687499,83.63498779296876,78.885029296875,83.63498779296876Q78.506529296875,83.63498779296876,78.128529296875,83.61638779296875Q77.750529296875,83.59788779296875,77.373829296875,83.56078779296875Q76.997229296875,83.52368779296876,76.622829296875,83.46808779296875Q76.248429296875,83.41258779296875,75.877229296875,83.33878779296874Q75.506029296875,83.26488779296875,75.138929296875,83.17298779296875Q74.771729296875,83.08098779296876,74.40952929687501,82.97108779296875Q74.047429296875,82.86128779296875,73.691029296875,82.73378779296876Q73.334669296875,82.60618779296875,72.985009296875,82.46138779296875Q72.635339296875,82.31658779296875,72.293199296875,82.15478779296875Q71.951059296875,81.99288779296876,71.617269296875,81.81448779296875Q71.283479296875,81.63608779296875,70.958849296875,81.44148779296876Q70.634219296875,81.24698779296875,70.319519296875,81.03668779296875Q70.004829296875,80.82638779296875,69.700829296875,80.60098779296875Q69.396839296875,80.37548779296876,69.104269296875,80.13538779296874Q68.811699296875,79.89528779296876,68.531269296875,79.64108779296875Q68.250829296875,79.38688779296875,67.983209296875,79.11928779296875Q67.715589296875,78.85168779296875,67.461419296875,78.57128779296875Q67.207239296875,78.29078779296876,66.967139296875,77.99828779296875Q66.727039296875,77.70568779296875,66.501579296875,77.40168779296874Q66.276119296875,77.09768779296874,66.065849296875,76.78298779296875Q65.85557929687499,76.46828779296875,65.660999296875,76.14368779296875Q65.466419296875,75.81898779296876,65.288009296875,75.48528779296875Q65.109599296875,75.15148779296875,64.947769296875,74.80928779296875Q64.785949296875,74.46718779296876,64.641119296875,74.11748779296875Q64.496279296875,73.76788779296875,64.368773296875,73.41148779296876Q64.241268296875,73.05508779296875,64.131401296875,72.69298779296875Q64.021535296875,72.33078779296875,63.929572296875,71.96358779296875Q63.837609296875,71.59648779296876,63.763772296875,71.22528779296874Q63.689934296875,70.85408779296876,63.634400296875,70.47968779296875Q63.578866296875,70.10528779296875,63.541768796875,69.72868779296874Q63.504671396875,69.35198779296874,63.486100296875,68.97398779296876Q63.467529296875,68.59598779296874,63.467529296875,68.21748779296875Q63.467529296875,67.83898779296875,63.486100296875,67.46098779296875Q63.504671396875,67.08298779296875,63.541768796875,66.70628779296875Q63.578866296875,66.32968779296876,63.634400296875,65.95528779296875Q63.689934296875,65.58088779296875,63.763772296875,65.20968779296875Q63.837609296875,64.83848779296875,63.929572296875,64.47138779296876Q64.021535296875,64.10418779296874,64.131401296875,63.74198779296875Q64.241268296875,63.37988779296875,64.368773296875,63.02348779296875Q64.496279296875,62.66713779296875,64.641119296875,62.31746779296875Q64.785949296875,61.96779779296875,64.947769296875,61.62565779296875Q65.109599296875,61.28351779296875,65.288009296875,60.94972779296875Q65.466419296875,60.61593779296875,65.660999296875,60.29130779296875Q65.85557929687499,59.96667779296875,66.065849296875,59.651987792968754Q66.276119296875,59.33728779296875,66.501579296875,59.03329779296875Q66.727039296875,58.72929779296875,66.967139296875,58.43672779296875Q67.207239296875,58.14415779296875,67.461419296875,57.86372779296875Q67.715589296875,57.58329779296875,67.983209296875,57.31566779296875Q68.250829296875,57.04804779296875,68.531269296875,56.79387779296875Q68.811699296875,56.53970779296875,69.104269296875,56.29959779296875Q69.396839296875,56.05949779296875,69.700829296875,55.83403779296875Q70.004829296875,55.60857779296875,70.319519296875,55.39830779296875Q70.634219296875,55.18803779296875,70.958849296875,54.99345779296875Q71.283479296875,54.79887779296875,71.617269296875,54.62046779296875Q71.951059296875,54.44205779296875,72.293199296875,54.28022779296875Q72.635339296875,54.11840779296875,72.985009296875,53.97357779296875Q73.334669296875,53.82873779296875,73.691029296875,53.70123179296875Q74.047429296875,53.57372679296875,74.40952929687501,53.46385979296875Q74.771729296875,53.35399379296875,75.138929296875,53.26203079296875Q75.506029296875,53.17006779296875,75.877229296875,53.09623079296875Q76.248429296875,53.02239279296875,76.622829296875,52.96685879296875Q76.997229296875,52.91132479296875,77.373829296875,52.87422729296875Q77.750529296875,52.83712989296875,78.128529296875,52.81855889296875Q78.506529296875,52.79998779296875,78.885029296875,52.79998779296875Q79.26352929687499,52.79998779296875,79.641529296875,52.81855889296875Q80.01952929687499,52.83712989296875,80.39622929687499,52.87422729296875Q80.772829296875,52.91132479296875,81.147229296875,52.96685879296875Q81.521629296875,53.02239279296875,81.892829296875,53.09623079296875Q82.26402929687501,53.17006779296875,82.631129296875,53.26203079296875Q82.998329296875,53.35399379296875,83.360529296875,53.46385979296875Q83.722629296875,53.57372679296875,84.079029296875,53.70123179296875Q84.435329296875,53.82873779296875,84.785029296875,53.97357779296875Q85.13472929687501,54.11840779296875,85.476829296875,54.28022779296875Q85.819029296875,54.44205779296875,86.152829296875,54.62046779296875Q86.486529296875,54.79887779296875,86.811229296875,54.99345779296875Q87.135829296875,55.18803779296875,87.450529296875,55.39830779296875Q87.76522929687499,55.60857779296875,88.069229296875,55.83403779296875Q88.373229296875,56.05949779296875,88.665829296875,56.29959779296875Q88.95832929687501,56.53970779296875,89.238829296875,56.79387779296875Q89.519229296875,57.04804779296875,89.786829296875,57.31566779296875Q90.054429296875,57.58329779296875,90.308629296875,57.86372779296875Q90.56282929687501,58.14415779296875,90.80292929687499,58.43672779296875Q91.043029296875,58.72929779296875,91.268429296875,59.03329779296875Q91.493929296875,59.33728779296875,91.704229296875,59.651987792968754Q91.914429296875,59.96667779296875,92.10902929687501,60.29130779296875Q92.303629296875,60.61593779296875,92.482029296875,60.94972779296875Q92.66042929687501,61.28351779296875,92.82222929687501,61.62565779296875Q92.984129296875,61.96779779296875,93.128929296875,62.31746779296875Q93.273729296875,62.66713779296875,93.401229296875,63.02348779296875Q93.528829296875,63.37988779296875,93.638629296875,63.74198779296875Q93.748529296875,64.10418779296874,93.840429296875,64.47138779296876Q93.932429296875,64.83848779296875,94.006229296875,65.20968779296875Q94.080129296875,65.58088779296875,94.135629296875,65.95528779296875Q94.19122929687501,66.32968779296876,94.228329296875,66.70628779296875Q94.265429296875,67.08298779296875,94.283929296875,67.46098779296875Q94.30252929687501,67.83898779296875,94.30252929687501,68.21748779296875Z" fill="#FFFFFF" fill-opacity="1"/></g><g><path d="M86.3524609375,78.65750122070312L71.4874609375,78.65750122070312C70.5874559375,78.65750122070312,69.8974609375,77.96500122070313,69.8974609375,77.06750122070312L69.8974609375,67.87250122070313C69.8974609375,66.97249622070312,70.5899579375,66.28250122070312,71.4874609375,66.28250122070312L86.3524609375,66.28250122070312C87.2524609375,66.28250122070312,87.9424609375,66.97499822070313,87.9424609375,67.87250122070313L87.9424609375,77.06750122070312C87.9424609375,77.96750122070313,87.24996093749999,78.65750122070312,86.3524609375,78.65750122070312Z" fill="#FFC60A" fill-opacity="1"/></g><g><path d="M81.37515625,70.9825Q81.37515625,71.10138,81.36349625,71.2197Q81.35184625,71.33801,81.32865625,71.45462Q81.30545625,71.57122,81.27094625,71.68499Q81.23643625,71.79875,81.19093625,71.90859Q81.14544625,72.01843,81.08940625,72.12328Q81.03335625,72.22813,80.96730625000001,72.32698Q80.90125625,72.42583,80.82583625,72.51773Q80.75041625,72.60963,80.66635625,72.6937Q80.58228625,72.77776,80.49038625,72.85318Q80.39848625,72.9286,80.29963625,72.99465000000001Q80.20078625,73.0607,80.09593625,73.11675Q79.99108625,73.17279,79.88124625,73.21828Q79.77140625,73.26378,79.65764625,73.29829Q79.54387625,73.3328,79.42727625,73.356Q79.31066625,73.37919,79.19235625,73.39084Q79.07403625,73.4025,78.95515625,73.4025Q78.83626625,73.4025,78.71795625,73.39084Q78.59963625,73.37919,78.48303625,73.356Q78.36643625,73.3328,78.25266625,73.29829Q78.13889625,73.26378,78.02905625,73.21828Q77.91922625,73.17279,77.81437625,73.11675Q77.70952625,73.0607,77.61067625,72.99465000000001Q77.51182425,72.9286,77.41992425,72.85318Q77.32802325,72.77776,77.24395725,72.6937Q77.15989125,72.60963,77.08447025,72.51773Q77.00904925,72.42583,76.94299925,72.32698Q76.87694925,72.22813,76.82090625,72.12328Q76.76486325,72.01843,76.71936725,71.90859Q76.67387125,71.79875,76.63936025,71.68499Q76.60484955,71.57122,76.58165585,71.45462Q76.55846215,71.33801,76.54680925,71.2197Q76.53515625,71.10138,76.53515625,70.9825Q76.53515625,70.86361,76.54680925,70.7453Q76.55846215,70.62698,76.58165585,70.51038Q76.60484955,70.39378,76.63936025,70.28001Q76.67387125,70.16624,76.71936725,70.0564Q76.76486325,69.94657,76.82090625,69.84172Q76.87694925,69.73687,76.94299925,69.63802Q77.00904925,69.539168,77.08447025,69.447268Q77.15989125,69.355367,77.24395725,69.271301Q77.32802325,69.187235,77.41992425,69.111814Q77.51182425,69.036393,77.61067625,68.970343Q77.70952625,68.904293,77.81437625,68.84825Q77.91922625,68.792207,78.02905625,68.746711Q78.13889625,68.701215,78.25266625,68.666704Q78.36643625,68.6321933,78.48303625,68.6089996Q78.59963625,68.5858059,78.71795625,68.574153Q78.83626625,68.5625,78.95515625,68.5625Q79.07403625,68.5625,79.19235625,68.574153Q79.31066625,68.5858059,79.42727625,68.6089996Q79.54387625,68.6321933,79.65764625,68.666704Q79.77140625,68.701215,79.88124625,68.746711Q79.99108625,68.792207,80.09593625,68.84825Q80.20078625,68.904293,80.29963625,68.970343Q80.39848625,69.036393,80.49038625,69.111814Q80.58228625,69.187235,80.66635625,69.271301Q80.75041625,69.355367,80.82583625,69.447268Q80.90125625,69.539168,80.96730625000001,69.63802Q81.03335625,69.73687,81.08940625,69.84172Q81.14544625,69.94657,81.19093625,70.0564Q81.23643625,70.16624,81.27094625,70.28001Q81.30545625,70.39378,81.32865625,70.51038Q81.35184625,70.62698,81.36349625,70.7453Q81.37515625,70.86361,81.37515625,70.9825Z" fill="#FFFFFF" fill-opacity="1"/></g><g><path d="M80.130009765625,71.8125L77.572509765625,71.8125L77.572509765625,76.6525L80.130009765625,76.6525L80.130009765625,71.8125Z" fill="#FFFFFF" fill-opacity="1"/></g><g><path d="M87.32013671875,65.6600244140625L84.76263671875,65.5900244140625C84.83263671875,63.6550244140625,84.14013671875,61.9250244140625,82.96513671875,60.6800244140625C81.86013671875,59.5750244140625,80.40763671875,58.9525244140625,78.81764671875,58.9525244140625C75.63764671875,58.9525244140625,73.01013671875,61.9250244140625,73.01013671875,65.5200244140625L70.45263671875,65.5200244140625C70.45263671875,60.6100244140625,74.25513671875,56.4625244140625,78.81763671875,56.4625244140625C81.03013671875,56.4625244140625,83.17263671875,57.3625264140625,84.76263671875,58.9525244140625C86.49013671875,60.6800244140625,87.39013671875,63.0325244140625,87.32013671875,65.6600244140625Z" fill="#FFC60A" fill-opacity="1"/></g><g><path d="M10.43994140625,59.230003662109375L13.13744140625,57.502503662109376L13.27494140625,60.682503662109376L10.43994140625,59.230003662109375ZM124.99994140625,71.32750366210936L122.09494140625,72.98750366210938L122.09494140625,69.67000366210937L124.99994140625,71.33000366210938L124.99994140625,71.32750366210936ZM50.33244140625,10.350003662109375C51.05744140625,10.350003662109375,51.64744140625,9.762503662109374,51.64744140625,9.037503662109375C51.64744140625,8.312503662109375,51.05994140625,7.722503662109375,50.33494140625,7.722503662109375C49.60994140625,7.722503662109375,49.02244140625,8.312503662109375,49.02244140625,9.037503662109375C49.02244140625,9.762503662109374,49.60994140625,10.350003662109375,50.33494140625,10.350003662109375L50.33244140625,10.350003662109375ZM95.33994140625,32.957503662109374C96.44744140625,32.957503662109374,97.34494140625,32.060003662109374,97.34494140625,30.952503662109375C97.34494140625,29.845003662109374,96.44744140625,28.947503662109376,95.33994140625,28.947503662109376C94.23244140625,28.947503662109376,93.33494140625,29.845003662109374,93.33494140625,30.952503662109375C93.33494140625,32.060003662109374,94.23244140625,32.957503662109374,95.33994140625,32.957503662109374Z" fill="#FFFFFF" fill-opacity="1"/><path d="M49.23004140625,10.142403662109375Q49.68674140625,10.599123662109374,50.33244140625,10.600003662109375L50.33494140625,10.600003662109375Q50.98064140625,10.599123662109374,51.43834140625,10.142633662109375Q51.89744140625,9.684763662109376,51.89744140625,9.037503662109375Q51.89744140625,8.390154662109374,51.44004140625,7.931584662109375Q50.98224140625,7.472503662109375,50.33494140625,7.472503662109375Q49.68764140625,7.472503662109375,49.22984140625,7.931584662109375Q48.77244140625,8.390154662109374,48.77244140625,9.037503662109375Q48.77244140625,9.684803662109374,49.23004140625,10.142403662109375ZM50.33494140625,10.100003662109375L50.33244140625,10.100003662109375Q49.89384140625,10.099123662109374,49.58364140625,9.788853662109375Q49.27244140625,9.477703662109375,49.27244140625,9.037503662109375Q49.27244140625,8.596878662109376,49.58384140625,8.284672662109376Q49.89514140625,7.972503662109375,50.33494140625,7.972503662109375Q50.77474140625,7.972503662109375,51.08604140625,8.284672662109376Q51.39744140625,8.596878662109376,51.39744140625,9.037503662109375Q51.39744140625,9.477273662109376,51.08524140625,9.788623662109375Q50.77394140625,10.099123662109374,50.33494140625,10.100003662109375ZM93.74534140625,29.357903662109376Q93.08494140625,30.018303662109375,93.08494140625,30.952503662109375Q93.08494140625,31.886703662109376,93.74534140625,32.54710366210938Q94.40574140625,33.207503662109374,95.33994140625,33.207503662109374Q96.27414140625,33.207503662109374,96.93454140625,32.54710366210938Q97.59494140625,31.886703662109376,97.59494140625,30.952503662109375Q97.59494140625,30.018303662109375,96.93454140625,29.357903662109376Q96.27414140625,28.697503662109376,95.33994140625,28.697503662109376Q94.40574140625,28.697503662109376,93.74534140625,29.357903662109376ZM94.09894140625,32.19350366210938Q93.58494140625,31.679603662109376,93.58494140625,30.952503662109375Q93.58494140625,30.225403662109375,94.09894140625,29.711503662109376Q94.61284140625,29.197503662109376,95.33994140625,29.197503662109376Q96.06704140625,29.197503662109376,96.58094140625,29.711503662109376Q97.09494140625,30.225403662109375,97.09494140625,30.952503662109375Q97.09494140625,31.679603662109376,96.58094140625,32.19350366210938Q96.06704140625,32.707503662109374,95.33994140625,32.707503662109374Q94.61284140625,32.707503662109374,94.09894140625,32.19350366210938ZM9.93872940625,59.25410366210937L13.16094140625,60.90500366210937L13.54326140625,61.100903662109374L13.36844140625,57.057703662109375L9.93872940625,59.25410366210937ZM13.00662140625,60.26410366210938L10.94115240625,59.20590366210938L12.90644140625,57.94730366210938L13.00662140625,60.26410366210938ZM124.99794140625,71.61670366210937L121.84494140625,73.41830366210938L121.84494140625,69.23920366210938L124.99794140625,71.04080366210937L125.24994140625,70.89670366210937L125.24994140625,71.76080366210938L124.99794140625,71.61670366210937ZM124.49394140625,71.32880366210938L122.34494140625,70.10080366210937L122.34494140625,72.55670366210937L124.49394140625,71.32880366210938Z" fill-rule="evenodd" fill="#0C296E" fill-opacity="1"/></g><g><path d="M121.61294140625,94.212490234375L120.57494140625,92.75999023437501L118.77794140625,92.689990234375L120.22994140625,91.652490234375L120.29994140625,89.85499023437501L121.33694140625,91.307490234375L123.13494140625,91.377490234375L121.68294140625,92.414990234375L121.61294140625,94.212490234375ZM13.34244140625,44.917490234375L12.23744140625,43.464990234375L10.43994140625,43.394990234375L11.95994140625,42.357490234375L12.02994140625,40.489990234375L13.06744140625,42.009990234375L14.86494140625,42.079990234375L13.41244140625,43.117490234375L13.34244140625,44.914990234375L13.34244140625,44.917490234375Z" fill="#FFC60A" fill-opacity="1"/></g></g></svg>