<svg xmlns="http://www.w3.org/2000/svg" xmlns:xlink="http://www.w3.org/1999/xlink" fill="none" version="1.1" width="128" height="128" viewBox="0 0 128 128"><defs><clipPath id="master_svg0_294_32416/294_32201"><rect x="0" y="0" width="128" height="128" rx="0"/></clipPath></defs><g clip-path="url(#master_svg0_294_32416/294_32201)"><g><path d="M2.75,106.979970703125L2.75,34.032470703125L125.25,34.032470703125L125.25,106.979970703125L2.75,106.979970703125ZM124.75,34.532470703125L3.25,34.532470703125L3.25,106.479970703125L124.75,106.479970703125L124.75,34.532470703125Z" fill-rule="evenodd" fill="#0C296E" fill-opacity="1"/></g><g><path d="M119.474,21.728576109375Q117.719,20.996938109375,115.803,21.019968109375L115.801,21.019987109375L12.26,21.019987109375Q10.320640000000001,21.019987109375,8.551960000000001,21.764040109375Q6.845219999999999,22.482037109375,5.52989,23.791237109375Q4.21594,25.099047109375,3.495381,26.794757109375Q2.75,28.548867109375,2.75,30.467487109375L2.75,34.534987109375L125.25,34.534987109375L125.25,30.467487109375Q125.25,28.527527109375,124.506,26.760357109375Q123.787,25.053837109375,122.478,23.744777109375Q121.169,22.435467109375,119.474,21.728576109375ZM12.26,21.519987109375L115.803,21.519987109375L115.806,21.519968109375Q117.62,21.497585109375,119.281,22.190070109375Q120.885,22.858917109375,122.125,24.098327109375Q123.365,25.338117109375,124.045,26.954387109375Q124.75,28.628487109375,124.75,30.467487109375L124.75,34.034987109375L3.25,34.034987109375L3.25,30.467487109375Q3.25,28.650687109375,3.9555569999999998,26.990297109375Q4.63791,25.384507109375,5.88261,24.145617109375Q7.1289,22.905137109375,8.74585,22.224918109375Q10.42153,21.519987109375,12.26,21.519987109375Z" fill-rule="evenodd" fill="#0C296E" fill-opacity="1"/></g><g><path d="M97.159970703125,29.4649609375C98.092480703125,29.4649609375,98.849970703125,28.7074609375,98.849970703125,27.7749609375C98.849970703125,26.8424609375,98.092480703125,26.0849609375,97.159970703125,26.0849609375C96.227470703125,26.0849609375,95.469970703125,26.8424609375,95.469970703125,27.7749609375C95.469970703125,28.7074609375,96.227470703125,29.4649609375,97.159970703125,29.4649609375Z" fill="#FFC60A" fill-opacity="1"/></g><g><path d="M104.6050390625,29.4649609375C105.5375490625,29.4649609375,106.2950390625,28.7074609375,106.2950390625,27.7749609375C106.2950390625,26.8424609375,105.5375490625,26.0849609375,104.6050390625,26.0849609375C103.6725390625,26.0849609375,102.9150390625,26.8424609375,102.9150390625,27.7749609375C102.9150390625,28.7074609375,103.6725390625,29.4649609375,104.6050390625,29.4649609375Z" fill="#165DFF" fill-opacity="1"/></g><g><path d="M112.0499853515625,29.4649609375C112.9824953515625,29.4649609375,113.7399853515625,28.7074609375,113.7399853515625,27.7749609375C113.7399853515625,26.8424609375,112.9824953515625,26.0849609375,112.0499853515625,26.0849609375C111.1174853515625,26.0849609375,110.3599853515625,26.8424609375,110.3599853515625,27.7749609375C110.3599853515625,28.7074609375,111.1174853515625,29.4649609375,112.0499853515625,29.4649609375Z" fill="#FFC60A" fill-opacity="1"/></g><g><path d="M43.227519531249996,70.94498779296875L37.66001953125,70.94498779296875L37.66001953125,80.89248779296875L34.22001953125,80.89248779296875L34.22001953125,70.94498779296875L21.64501953125,70.94498779296875L21.64501953125,68.75498779296875L33.65751953125,51.29998779296875L37.66251953125,51.29998779296875L37.66251953125,68.25498779296875L43.23001953125,68.25498779296875L43.23001953125,70.94498779296875L43.227519531249996,70.94498779296875ZM34.21751953125,68.25498779296875L34.21751953125,59.93498779296875C34.21751953125,58.61998779296875,34.40501953125,56.43248779296875,34.46751953125,54.99248779296875L34.28001953125,54.99248779296875C33.59251953125,56.30748779296875,32.77751953125,57.68248779296875,31.96501953125,58.99748779296875L25.39501953125,68.25748779296875L34.21751953125,68.25748779296875L34.21751953125,68.25498779296875ZM105.66501953125,70.94498779296875L100.09751953125,70.94498779296875L100.09751953125,80.89248779296875L96.65751953125,80.89248779296875L96.65751953125,70.94498779296875L84.08251953125,70.94498779296875L84.08251953125,68.75498779296875L96.09501953125,51.29998779296875L100.10001953125,51.29998779296875L100.10001953125,68.25498779296875L105.66751953125,68.25498779296875L105.66751953125,70.94498779296875L105.66501953125,70.94498779296875ZM96.65501953125,68.25498779296875L96.65501953125,59.93498779296875C96.65501953125,58.61998779296875,96.84251953125,56.43248779296875,96.90501953125,54.99248779296875L96.71751953125,54.99248779296875C96.03001953125,56.30748779296875,95.21501953125,57.68248779296875,94.40251953125,58.99748779296875L87.83251953125,68.25748779296875L96.65501953125,68.25748779296875L96.65501953125,68.25498779296875Z" fill="#165DFF" fill-opacity="1"/><path d="M43.227519531249996,71.64998779296874L43.93501953125,71.64998779296874L43.93501953125,67.54998779296875L38.36751953125,67.54998779296875L38.36751953125,50.59498779296875L33.28691953125,50.59498779296875L20.94001953125,68.53588779296875L20.94001953125,71.64998779296874L33.51501953125,71.64998779296874L33.51501953125,81.59748779296875L38.36501953125,81.59748779296875L38.36501953125,71.64998779296874L43.227519531249996,71.64998779296874ZM105.66501953125,71.64998779296874L106.37251953125,71.64998779296874L106.37251953125,67.54998779296875L100.80501953125,67.54998779296875L100.80501953125,50.59498779296875L95.72441953125,50.59498779296875L83.37751953125,68.53588779296875L83.37751953125,71.64998779296874L95.95251953125,71.64998779296874L95.95251953125,81.59748779296875L100.80251953125,81.59748779296875L100.80251953125,71.64998779296874L105.66501953125,71.64998779296874ZM42.525019531249995,70.23998779296875L42.525019531249995,68.95998779296875L36.95751953125,68.95998779296875L36.95751953125,52.00498779296875L34.02811953125,52.00498779296875L22.35001953125,68.97418779296875L22.35001953125,70.23998779296875L34.92501953125,70.23998779296875L34.92501953125,80.18748779296875L36.95501953125,80.18748779296875L36.95501953125,70.23998779296875L42.525019531249995,70.23998779296875ZM104.96251953125,70.23998779296875L104.96251953125,68.95998779296875L99.39501953125,68.95998779296875L99.39501953125,52.00498779296875L96.46561953125,52.00498779296875L84.78751953125,68.97408779296875L84.78751953125,70.23998779296875L97.36251953125,70.23998779296875L97.36251953125,80.18748779296875L99.39251953125,80.18748779296875L99.39251953125,70.23998779296875L104.96251953125,70.23998779296875ZM24.03039953125,68.96248779296874L34.92251953125,68.96248779296874L34.92251953125,59.93498779296875Q34.92251953125,59.12882779296875,35.06621953125,56.86021779296875Q35.14841953125,55.56275779296875,35.17181953125,55.02305779296875L35.20381953125,54.28748779296875L33.85301953125,54.28748779296875L33.65521953125,54.66584779296875Q32.79291953125,56.31529779296875,31.37703953125,58.60786779296875L24.03039953125,68.96248779296874ZM86.46791953125,68.96248779296874L97.36001953125,68.96248779296874L97.36001953125,59.93498779296875Q97.36001953125,59.12888779296875,97.50371953125,56.86021779296875Q97.58591953125,55.56252779296875,97.60931953125,55.02305779296875L97.64131953125,54.28748779296875L96.29051953125,54.28748779296875L96.09271953125,54.66584779296875Q95.23041953125,56.31516779296875,93.81451953125,58.60786779296875L86.46791953125,68.96248779296874ZM33.51251953125,67.55248779296875L26.759639531250002,67.55248779296875L32.55301953125,59.38714779296875L32.56481953125,59.36805779296875Q33.12761953125,58.45710779296875,33.60601953125,57.64350779296875Q33.51251953125,59.25555779296875,33.51251953125,59.93498779296875L33.51251953125,67.55248779296875ZM95.95001953125,67.55248779296875L89.19711953125,67.55248779296875L94.99051953125,59.38714779296875L95.00221953125,59.36805779296875Q95.56521953125,58.45699779296875,96.04351953125,57.64351779296875Q95.95001953125,59.25568779296875,95.95001953125,59.93498779296875L95.95001953125,67.55248779296875Z" fill-rule="evenodd" fill="#165DFF" fill-opacity="1"/></g><g><path d="M76.39519023437501,46.553123046875Q70.713590234375,47.124243046875,64.061590234375,48.785403046875004Q57.283280234375,50.433543046875,52.017596434375,52.468223046874996L51.611996234375,52.624923046875L51.680623234375,52.195523046874996Q52.264744234375,48.540873046875,55.152290234375,45.653823046875Q58.102290234375,42.704323046875,62.378790234375,41.669470046875Q66.672290234375,40.632848046875,70.632090234375,41.893646046875Q74.456590234375,43.111393046875,76.630390234375,46.027433046875004L76.76419023437501,46.014293046875L76.764990234375,46.289223046875L76.767390234375,47.066043046875L76.39519023437501,46.553123046875ZM76.04539023437499,46.086453046875Q73.991590234375,43.488033046875,70.480390234375,42.370078046875Q66.653790234375,41.151686046875,62.496190234375,42.155504046875Q58.356450234375004,43.157253046875,55.505810234375,46.007403046875Q52.905196234375,48.607573046875004,52.252319234375,51.842923046875Q57.398760234375,49.890903046874996,63.943390234375,48.299563046875Q70.452790234375,46.674033046875,76.04539023437499,46.086453046875ZM79.281390234375,59.281123046874995L95.591090234375,84.10972304687499L96.008990234375,83.835223046875L79.503590234375,58.708823046875L54.764390234375,64.98992304687499L51.864223134375,89.53062304687501L52.360767234375,89.589323046875L55.220600234375,65.390023046875L79.281390234375,59.281123046874995ZM86.010390234375,91.663323046875L79.260690234375,94.851423046875L79.474290234375,95.303523046875L91.164590234375,89.781723046875L58.191070234375,98.510023046875L57.882290234375,98.216323046875L57.537690234375,98.57862304687501L57.947690234375,98.968623046875L58.119990234375,98.78752304687501L58.183960234375,99.029123046875L86.010390234375,91.663323046875Z" fill-rule="evenodd" fill="#0C296E" fill-opacity="1"/></g><g><path d="M88.5848921875,45.911693090625Q83.9236921875,45.224923890625,76.6096921875,46.044014890625L76.6652921875,46.540907890625Q83.91499218749999,45.729032890625,88.5119921875,46.406352890625Q93.1325921875,47.087162890625,93.5993921875,49.040552890625Q93.9128921875,50.380132890625,92.1380921875,52.156172890625Q90.35339218749999,53.942062890624996,86.7636921875,55.855272890625Q79.11109218749999,59.933812890625,67.5693921875,62.691812890625Q55.985792187499996,65.459812890625,47.329632187499996,65.321512890625Q43.2486721875,65.256412890625,40.8525721875,64.484012890625Q38.4663621875,63.714812890625,38.1534311875,62.378012890625Q37.6842361875,60.456812890625,41.4581821875,57.742312890625Q45.2499821875,55.014942890625,52.0766921875,52.408512890625L51.8982921875,51.941402890625Q45.0108421875,54.571042890625,41.1662221875,57.336412890625Q37.1185011875,60.247812890625,37.6665911875,62.491912890625Q38.0439451875,64.104012890625,40.6991721875,64.95991289062499Q43.1661721875,65.755112890625,47.321642187500004,65.821512890625Q56.0407921875,65.960712890625,67.68559218749999,63.178112890625Q79.28969218750001,60.405212890625,86.99889218749999,56.296512890624996Q90.65439218750001,54.348232890625,92.49179218750001,52.509602890625Q94.4630921875,50.536892890625,94.0856921875,48.924362890625Q93.5403921875,46.641834890625,88.5848921875,45.911693090625Z" fill-rule="evenodd" fill="#0C296E" fill-opacity="1"/></g><g><path d="M79.59828769531251,59.2024354296875L80.3299876953125,56.2732254296875L80.3299876953125,56.2424754296875Q80.3299876953125,56.0330454296875,80.4420876953125,55.6965354296875L80.4458876953125,55.6852654296875L80.4485876953125,55.6736954296875Q80.6130876953125,54.9605854296875,80.2658876953125,54.3517464296875Q79.90688769531249,53.7223134296875,79.1986876953125,53.5588810296875Q77.1851876953125,53.0559804296875,73.5983876953125,53.2716794296875Q69.7468876953125,53.5032954296875,65.6312876953125,54.4969654296875Q60.9310176953125,55.6273354296875,57.8093976953125,57.1023754296875Q54.9803976953125,58.4391554296875,53.0680176953125,60.2509954296875L53.0655686953125,60.253315429687504L53.0631826953125,60.2557054296875Q52.6206506953125,60.6982354296875,52.5764486953125,61.3624454296875Q52.5320116953125,62.0301754296875,52.9176216953125,62.5259654296875L54.9564676953125,65.1560154296875L79.59828769531251,59.2024354296875ZM79.8303876953125,56.2100554296875L79.1865876953125,58.7875154296875L55.1534476953125,64.5940154296875L53.3122976953125,62.218995429687496Q53.0435476953125,61.873455429687496,53.0753456953125,61.3956454296875Q53.1069536953125,60.9206754296875,53.4144606953125,60.6115354296875Q55.2681676953125,58.8561854296875,58.023017695312504,57.5544554296875Q61.0980376953125,56.1014254296875,65.7485876953125,54.9829954296875Q69.8210876953125,53.9997334296875,73.6283876953125,53.7707784296875Q77.1385876953125,53.5596895296875,79.0862876953125,54.0460764296875Q79.5810876953125,54.1602634296875,79.83158769531249,54.5994554296875Q80.0793876953125,55.0339354296875,79.96388769531251,55.5502554296875Q79.8374876953125,55.9333654296875,79.8303876953125,56.2100554296875Z" fill-rule="evenodd" fill="#0C296E" fill-opacity="1"/></g><g><path d="M67.9274771484375,65.1075365234375C74.6124771484375,63.4950365234375,79.6949771484375,60.8000365234375,79.2824771484375,59.0875365234375C78.8699771484375,57.3750385234375,73.1149771484375,57.2925415234375,66.4324771484375,58.9050365234375C59.7475071484375,60.5175365234375,54.6650081484375,63.2125365234375,55.0775108484375,64.9250365234375C55.4900091484375,66.6375365234375,61.2450071484375,66.7200365234375,67.9274771484375,65.1075365234375Z" fill="#0C296E" fill-opacity="1"/><path d="M57.9857071484375,61.6743365234375Q54.5027271484375,63.5209765234375,54.8539061484375,64.9788965234375Q55.2051201484375,66.4369765234375,59.1479871484375,66.4931365234375Q62.9418571484375,66.5471765234375,67.9814771484375,65.3311265234375Q73.0230771484375,64.1150065234375,76.3742771484375,62.3382465234375Q79.8572771484375,60.4915965234375,79.5060771484375,59.0336765234375Q79.15487714843749,57.5755975234375,75.2120771484375,57.5194385234375Q71.41817714843751,57.4654005234375,66.3785771484375,58.6814575234375Q61.3368971484375,59.8975665234375,57.9857071484375,61.6743365234375ZM56.3893571484375,65.6835965234375Q55.4227191484375,65.3760165234375,55.3011151484375,64.8711765234375Q55.1794901484375,64.3662465234375,55.8995951484375,63.6520065234375Q56.6598571484375,62.8979465234375,58.2011871484375,62.0807465234375Q61.5011471484375,60.3311365234375,66.4864771484375,59.1286265234375Q71.4696771484375,57.9261805234375,75.2054771484375,57.9793915234375Q76.9500771484375,58.0042405234375,77.9706771484375,58.3289765234375Q78.9372771484375,58.6365595234375,79.0588771484375,59.1413965234375Q79.1805771484375,59.6463265234375,78.4603771484375,60.3605665234375Q77.7001771484375,61.1146265234375,76.1588771484375,61.9318365234375Q72.8588771484375,63.6814465234375,67.8735771484375,64.8839565234375Q62.8903771484375,66.0863965234375,59.1545371484375,66.03318652343751Q57.4099071484375,66.00833652343749,56.3893571484375,65.6835965234375Z" fill-rule="evenodd" fill="#0C296E" fill-opacity="1"/></g><g><path d="M48.087448984375,60.3374665234375C48.994948984375,60.1199665234375,49.597438984375,59.3974665234375,49.437438984375,58.7249675234375C49.274948984375,58.0524675234375,48.409938984375,57.6849675234375,47.502438984375,57.9049682234375C46.594939984375,58.1249695234375,45.992442984375,58.8449665234375,46.152442884375,59.5174665234375C46.314940984375,60.1899665234375,47.179938984375,60.5574665234375,48.087448984375,60.3374665234375Z" fill="#FFC60A" fill-opacity="1"/></g><g><path d="M56.6424715234375,55.7675242578125C57.1449715234375,55.3450242578125,57.1374715234375,54.5100242578125,56.6274715234375,53.9000202578125C56.1174715234375,53.2925224578125,55.2949715234375,53.1400222578125,54.7924725234375,53.5625192578125C54.2899745234375,53.9850192578125,54.2949715234375,54.8200142578125,54.8074725234375,55.4300242578125C55.3174705234375,56.037514257812504,56.1399715234375,56.1900142578125,56.6424715234375,55.7675242578125Z" fill="#165DFF" fill-opacity="1"/></g><g><path d="M65.357501796875,53.2674714453125C66.097501796875,53.0899714453125,66.530001796875,52.2649814453125,66.327501796875,51.4249714453125C66.125001796875,50.5849764453125,65.362511796875,50.0499764453125,64.622501796875,50.2274780453125C63.882499796875,50.4049794453125,63.447501796875,51.2299814453125,63.650001496875,52.0699814453125C63.852500796875,52.909981445312496,64.615001796875,53.4474714453125,65.355001796875,53.2674714453125L65.357501796875,53.2674714453125Z" fill="#FFC60A" fill-opacity="1"/></g><g><path d="M74.91002875,51.6374862109375C75.58252875,51.4749862109375,75.97002875,50.6899862109375,75.77502875,49.8849862109375C75.58002875,49.0774842109375,74.87752875,48.5549812109375,74.20752675,48.7174835109375C73.53502675,48.8799822109375,73.15002475,49.6649822109375,73.34252925,50.4699862109375C73.53752875,51.2774762109375,74.24002875,51.7974862109375,74.91002875,51.6349862109375L74.91002875,51.6374862109375Z" fill="#165DFF" fill-opacity="1"/></g><g><path d="M84.262499375,51.77001201171875C85.202499375,51.54251201171875,85.827499375,50.787512011718746,85.657489375,50.08251201171875C85.487499375,49.37751001171875,84.587489375,48.99001301171875,83.647489375,49.21501161171875C82.707489375,49.44251301171875,82.082489375,50.19751201171875,82.252494775,50.90251201171875C82.422500375,51.60751201171875,83.322499375,51.99501201171875,84.262499375,51.77001201171875Z" fill="#FFC60A" fill-opacity="1"/></g><g><path d="M78.1730951171875,66.4417688828125L82.1155951171875,73.3242648828125L82.5493951171875,73.0757448828125L78.60689511718749,66.1932408828125L78.1730951171875,66.4417688828125ZM81.7473951171875,69.4554548828125L84.81239511718749,74.2104548828125L85.2325951171875,73.9395548828125L82.1675951171875,69.1845648828125L81.7473951171875,69.4554548828125ZM66.4405551171875,71.8391148828125L66.8780551171875,78.4091048828125L67.3769451171875,78.3759048828125L66.9394451171875,71.8058948828125L66.4405551171875,71.8391148828125ZM59.8077226171875,84.6993048828125L59.4952231171875,92.01930488281249L59.9947671171875,92.04070488281249L60.3072671171875,84.7207048828125L59.8077226171875,84.6993048828125ZM78.4663951171875,85.0421048828125L81.4688951171875,93.6771048828125L81.9410951171875,93.5129048828125L78.9385951171875,84.8779048828125L78.4663951171875,85.0421048828125Z" fill-rule="evenodd" fill="#0C296E" fill-opacity="1"/></g><g><path d="M65.197454,43.7426921640625Q68.09687,42.8735631640625,70.72183,44.8551031640625Q70.84752,44.9499831640625,71.005,44.9499831640625L71.00767,44.9499731640625Q71.03899,44.9498031640625,71.07001,44.9454631640625Q71.1626,44.9325331640625,71.2432,44.8851531640625Q71.32379,44.8377731640625,71.38012,44.7631531640625Q71.475,44.6374631640625,71.475,44.4799831640625Q71.475,44.4716831640625,71.4747,44.4633931640625Q71.47095,44.3572631640625,71.42194,44.2630531640625Q71.37293,44.1688431640625,71.28817,44.1048631640625Q68.28313,41.8364031640625,64.927546,42.8422761640625Q64.854917,42.8640471640625,64.792818,42.9075532640625Q64.73072,42.9510590640625,64.685453,43.0118854140625Q64.640186,43.0727117640625,64.616343,43.1446871640625Q64.5925,43.2166621640625,64.5925,43.2924841640625L64.592537,43.2983511640625Q64.59336,43.3642801640625,64.612292,43.4274381640625Q64.639136,43.5169901640625,64.698207,43.5894531640625Q64.757278,43.6619151640625,64.839582,43.7062561640625Q64.94395,43.7624841640625,65.0625,43.7624841640625L65.0731671,43.7623631640625Q65.1366393,43.7609221640625,65.197454,43.7426921640625Z" fill-rule="evenodd" fill="#0C296E" fill-opacity="1"/></g><g><path d="M72.19505859375,46.10748291015625C72.47255859375,46.10748291015625,72.69505859375,45.88498291015625,72.69505859375,45.60748291015625C72.69505859375,45.32998291015625,72.47255859375,45.10748291015625,72.19505859375,45.10748291015625C71.91755859375,45.10748291015625,71.69505859375,45.33248091015625,71.69505859375,45.60748291015625C71.69505859375,45.88248491015625,71.92005859375,46.10748291015625,72.19505859375,46.10748291015625ZM62.43505859375,58.68248291015625C62.78005959375,58.68248291015625,63.06005859375,58.40248291015625,63.06005859375,58.05748291015625C63.06005859375,57.712482910156254,62.78005959375,57.43248291015625,62.43505859375,57.43248291015625C62.09005759375,57.43248291015625,61.81005859375,57.712482910156254,61.81005859375,58.05748291015625C61.81005859375,58.40248291015625,62.09005759375,58.68248291015625,62.43505859375,58.68248291015625ZM70.00505859375,56.86748291015625C70.35005859374999,56.86748291015625,70.63005859375,56.587482910156254,70.63005859375,56.24248291015625C70.63005859375,55.89748291015625,70.35005859374999,55.61748291015625,70.00505859375,55.61748291015625C69.66005859375,55.61748291015625,69.38005859375,55.89748291015625,69.38005859375,56.24248291015625C69.38005859375,56.587482910156254,69.66005859375,56.86748291015625,70.00505859375,56.86748291015625Z" fill="#0C296E" fill-opacity="1"/></g><g><path d="M65.352305,58.0512463828125Q66.32058,57.1709997828125,67.6227,57.5430343828125Q67.65568999999999,57.5524603828125,67.69,57.5524603828125L67.69011,57.5524603828125Q67.73003,57.5524423828125,67.76788,57.5397553828125Q67.80572,57.5270673828125,67.83758,57.5030223828125Q67.86945,57.4789783828125,67.89203,57.4460633828125Q67.91461,57.4131483828125,67.92558,57.3747673828125Q67.935,57.3417743828125,67.935,57.3074603828125L67.93496999999999,57.3037793828125Q67.93405,57.2422611828125,67.90417,57.1884782828125Q67.85489,57.0997663828125,67.75731,57.0718873828125Q66.2099,56.6297693828125,65.0482459,57.6656693828125L64.952933,57.7133263828125Q64.890681,57.7444513828125,64.854091,57.8036563828125Q64.8175,57.8628613828125,64.8175,57.9324603828125L64.817666,57.9414733828125Q64.819619,57.9945353828125,64.843365,58.0420283828125Q64.874491,58.1042793828125,64.933696,58.1408703828125Q64.9929006,58.1774603828125,65.0625,58.1774603828125L65.07151279,58.1772953828125Q65.1245749,58.1753413828125,65.172067,58.1515953828125L65.297067,58.0890953828125Q65.327297,58.0739803828125,65.352305,58.0512463828125Z" fill-rule="evenodd" fill="#0C296E" fill-opacity="1"/></g><g><path d="M41.82331953125,80.9886940625Q50.46461953125,84.1304940625,57.74041953125,99.0247140625L58.18961953125,98.8052140625Q50.82541953125,83.7296140625,41.994219531249996,80.5187890625Q33.12131953125,77.2928640625,22.85807653125,86.0195340625L23.18196253125,86.4004540625Q33.22371953125,77.8621140625,41.82331953125,80.9886940625Z" fill-rule="evenodd" fill="#0C296E" fill-opacity="1"/></g><g><path d="M56.865681640625,100.32980619140625Q69.783731640625,85.98895619140625,87.807431640625,100.23362619140624L88.117431640625,99.84134619140625Q69.726031640625,85.30602619140625,56.494181640625,99.99515619140625L56.865681640625,100.32980619140625Z" fill-rule="evenodd" fill="#0C296E" fill-opacity="1"/></g><g><path d="M91.85245496093751,85.2783579296875Q96.4622849609375,82.2820889296875,106.6264849609375,84.0786809296875L106.7134849609375,83.5863129296875Q96.3551049609375,81.7553979296875,91.5799649609375,84.8591279296875Q86.7582749609375,87.9930979296875,87.6514819609375,96.0600279296875L88.1484449609375,96.0050279296875Q87.2891539609375,88.2443779296875,91.85245496093751,85.2783579296875Z" fill-rule="evenodd" fill="#0C296E" fill-opacity="1"/></g><g><path d="M106.54498046875,50.92498779296875L106.54498046875,52.11248779296875Q106.54498046875,52.16221779296875,106.56401046875,52.20815779296875Q106.58304046875,52.25409779296875,106.61821046875,52.28926779296875Q106.65337046875,52.32442779296875,106.69931046875,52.34345779296875Q106.74525046875,52.36248779296875,106.79498046875,52.36248779296875Q106.84471046875,52.36248779296875,106.89065046875,52.34345779296875Q106.93660046875,52.32442779296875,106.97176046875,52.28926779296875Q107.00692046875,52.25409779296875,107.02595046875,52.20815779296875Q107.04498046875,52.16221779296875,107.04498046875,52.11248779296875L107.04498046875,50.92498779296875Q107.04498046875,50.87525969296875,107.02595046875,50.82931699296875Q107.00692046875,50.78337379296875,106.97176046875,50.74821079296875Q106.93660046875,50.71304779296875,106.89065046875,50.69401779296875Q106.84471046875,50.67498779296875,106.79498046875,50.67498779296875Q106.74525046875,50.67498779296875,106.69931046875,50.69401779296875Q106.65337046875,50.71304779296875,106.61821046875,50.74821079296875Q106.58304046875,50.78337379296875,106.56401046875,50.82931699296875Q106.54498046875,50.87525969296875,106.54498046875,50.92498779296875ZM104.97998046875,52.98748779296875L106.16748046875,52.98748779296875Q106.21721046875,52.98748779296875,106.26315046875,52.96845779296875Q106.30909046875,52.94942779296875,106.34426046875,52.91426779296875Q106.37942046875,52.87909779296875,106.39845046875,52.83315779296875Q106.41748046875,52.78721779296875,106.41748046875,52.73748779296875Q106.41748046875,52.68775779296875,106.39845046875,52.64181779296875Q106.37942046875,52.59587779296875,106.34426046875,52.56070779296875Q106.30909046875,52.52554779296875,106.26315046875,52.50651779296875Q106.21721046875,52.48748779296875,106.16748046875,52.48748779296875L104.97998046875,52.48748779296875Q104.93025236875,52.48748779296875,104.88430966875,52.50651779296875Q104.83836646875,52.52554779296875,104.80320346875,52.56070779296875Q104.76804046875,52.59587779296875,104.74901046875,52.64181779296875Q104.72998046875,52.68775779296875,104.72998046875,52.73748779296875Q104.72998046875,52.78721779296875,104.74901046875,52.83315779296875Q104.76804046875,52.87909779296875,104.80320346875,52.91426779296875Q104.83836646875,52.94942779296875,104.88430966875,52.96845779296875Q104.93025236875,52.98748779296875,104.97998046875,52.98748779296875ZM107.41998046875,52.98748779296875L108.60748046875,52.98748779296875Q108.65721046875,52.98748779296875,108.70315046875,52.96845779296875Q108.74910046875,52.94942779296875,108.78426046875,52.91426779296875Q108.81942046875,52.87909779296875,108.83845046875,52.83315779296875Q108.85748046875,52.78721779296875,108.85748046875,52.73748779296875Q108.85748046875,52.68775779296875,108.83845046875,52.64181779296875Q108.81942046875,52.59587779296875,108.78426046875,52.56070779296875Q108.74910046875,52.52554779296875,108.70315046875,52.50651779296875Q108.65721046875,52.48748779296875,108.60748046875,52.48748779296875L107.41998046875,52.48748779296875Q107.37025046875,52.48748779296875,107.32431046875,52.50651779296875Q107.27837046875,52.52554779296875,107.24321046875,52.56070779296875Q107.20804046875,52.59587779296875,107.18901046875,52.64181779296875Q107.16998046875,52.68775779296875,107.16998046875,52.73748779296875Q107.16998046875,52.78721779296875,107.18901046875,52.83315779296875Q107.20804046875,52.87909779296875,107.24321046875,52.91426779296875Q107.27837046875,52.94942779296875,107.32431046875,52.96845779296875Q107.37025046875,52.98748779296875,107.41998046875,52.98748779296875ZM106.54498046875,53.36498779296875L106.54498046875,54.48998779296875Q106.54498046875,54.53971779296875,106.56401046875,54.58565779296875Q106.58304046875,54.63159779296875,106.61821046875,54.66676779296875Q106.65337046875,54.70192779296875,106.69931046875,54.72095779296875Q106.74525046875,54.73998779296875,106.79498046875,54.73998779296875Q106.84471046875,54.73998779296875,106.89065046875,54.72095779296875Q106.93660046875,54.70192779296875,106.97176046875,54.66676779296875Q107.00692046875,54.63159779296875,107.02595046875,54.58565779296875Q107.04498046875,54.53971779296875,107.04498046875,54.48998779296875L107.04498046875,53.36498779296875Q107.04498046875,53.31525779296875,107.02595046875,53.26931779296875Q107.00692046875,53.22336779296875,106.97176046875,53.18820779296875Q106.93660046875,53.15304779296875,106.89065046875,53.13401779296875Q106.84471046875,53.11498779296875,106.79498046875,53.11498779296875Q106.74525046875,53.11498779296875,106.69931046875,53.13401779296875Q106.65337046875,53.15304779296875,106.61821046875,53.18820779296875Q106.58304046875,53.22336779296875,106.56401046875,53.26931779296875Q106.54498046875,53.31525779296875,106.54498046875,53.36498779296875Z" fill-rule="evenodd" fill="#0C296E" fill-opacity="1"/></g><g><path d="M98.943678125,39.5412025859375Q98.910678125,39.4816195859375,98.851978125,39.4470475859375Q98.793178125,39.4124755859375,98.725078125,39.4124755859375L98.722578125,39.4124755859375Q98.656278125,39.4124755859375,98.598778125,39.4453035859375Q98.541178125,39.4781305859375,98.507378125,39.5351645859375L97.507378125,41.2251655859375Q97.454678125,41.3142855859375,97.480378125,41.4145855859375Q97.506178125,41.5148955859375,97.595278125,41.5676255859375Q97.654178125,41.6024755859375,97.722578125,41.6024755859375L99.662578125,41.6024755859375Q99.712278125,41.6024755859375,99.758278125,41.5834455859375Q99.804178125,41.5644155859375,99.839378125,41.5292555859375Q99.874478125,41.4940855859375,99.893578125,41.4481455859375Q99.912578125,41.4022055859375,99.912578125,41.3524755859375Q99.912578125,41.2877755859375,99.881178125,41.2312055859375L98.943678125,39.5412025859375ZM98.716878125,40.1630405859375L98.160978125,41.1024755859375L99.237978125,41.1024755859375L98.716878125,40.1630405859375ZM41.432378125,43.8122555859375Q41.102578125,44.1420455859375,41.102578125,44.6074755859375Q41.102578125,45.0728955859375,41.432378125,45.4026855859375Q41.762178125,45.7324755859375,42.227578125,45.7324755859375Q42.692978124999996,45.7324755859375,43.022778125,45.4026855859375Q43.352578125,45.0728955859375,43.352578125,44.6074755859375Q43.352578125,44.1420455859375,43.022778125,43.8122555859375Q42.692978124999996,43.4824755859375,42.227578125,43.4824755859375Q41.762178125,43.4824755859375,41.432378125,43.8122555859375ZM41.785878124999996,45.0491355859375Q41.602578125,44.8657955859375,41.602578125,44.6074755859375Q41.602578125,44.3491555859375,41.785878124999996,44.1658155859375Q41.969278125,43.9824755859375,42.227578125,43.9824755859375Q42.485878125,43.9824755859375,42.669278125000005,44.1658155859375Q42.852578125,44.3491555859375,42.852578125,44.6074755859375Q42.852578125,44.8657955859375,42.669278125000005,45.0491355859375Q42.485878125,45.2324755859375,42.227578125,45.2324755859375Q41.969278125,45.2324755859375,41.785878124999996,45.0491355859375ZM23.530208125,53.4811755859375L22.113668125,52.3744755859375Q22.032068125,52.3107755859375,22.019438125,52.207975585937504Q22.006818125,52.1051755859375,22.070568125,52.0235755859375Q22.111618125,51.9709755859375,22.173378125,51.9458755859375L23.863378125,51.2583755859375Q23.909438125,51.2396755859375,23.959168124999998,51.2399755859375Q24.008888125,51.240275585937496,24.054708125,51.2595755859375Q24.100528125,51.2789755859375,24.135468125,51.3142755859375Q24.170408125,51.349675585937504,24.189148125,51.3957755859375Q24.214378125,51.4577755859375,24.205238125,51.524075585937496L23.955238125,53.3390755859375Q23.948458125000002,53.388375585937496,23.923328125,53.4312755859375Q23.898208125,53.4741755859375,23.858578125,53.5041755859375Q23.818948125,53.5342755859375,23.770838125,53.5468755859375Q23.722728125,53.5593755859375,23.673468125,53.5526755859375Q23.589758125,53.5410755859375,23.530208125,53.4811755859375ZM23.519498125,52.8382755859375L23.650858125,51.8846755859375L22.761788125,52.2462755859375L23.519498125,52.8382755859375ZM19.454239025,78.01667558593749Q19.142578125,78.32827558593749,19.142578125,78.76747558593749Q19.142578125,79.20667558593749,19.454239025,79.5182755859375Q19.765900125,79.82997558593749,20.205078125,79.82997558593749Q20.645858125,79.82997558593749,20.957038125,79.5181755859375Q21.267578125,79.2069755859375,21.267578125,78.76747558593749Q21.267578125,78.32827558593749,20.955918125,78.01667558593749Q20.644258125,77.70497558593749,20.205078125,77.70497558593749Q19.765900125,77.70497558593749,19.454239025,78.01667558593749ZM19.807792125,79.16477558593749Q19.642578125,78.99957558593749,19.642578125,78.76747558593749Q19.642578125,78.5353755859375,19.807792125,78.3701755859375Q19.973006125,78.20497558593749,20.205078125,78.20497558593749Q20.437148125,78.20497558593749,20.602368124999998,78.3701755859375Q20.767578125,78.5353755859375,20.767578125,78.76747558593749Q20.767578125,79.0001755859375,20.603118125,79.1649755859375Q20.438438125,79.32997558593749,20.205078125,79.32997558593749Q19.973006125,79.32997558593749,19.807792125,79.16477558593749ZM103.292578125,91.6549755859375Q103.472378125,91.6540755859375,103.600078125,91.5266755859375Q103.728878125,91.3982755859375,103.730078125,91.21577558593751Q103.731278125,91.0359755859375,103.602978125,90.9076755859375Q103.473978125,90.77867558593749,103.290978125,90.77747558593751Q103.111678125,90.77747558593751,102.983578125,90.9062755859375Q102.855078125,91.0353755859375,102.855078125,91.2174755859375Q102.855078125,91.3988755859375,102.983078125,91.52697558593749Q103.110278125,91.6540755859375,103.290078125,91.6549755859375L103.292578125,91.6549755859375L103.292578125,91.6549755859375ZM103.290078125,92.1549755859375L103.287778125,92.1549755859375Q102.902378125,92.15327558593751,102.629578125,91.8804755859375Q102.355078125,91.6059755859375,102.355078125,91.2174755859375Q102.355078125,90.8290755859375,102.629078125,90.5536755859375Q102.903878125,90.27747558593751,103.294178125,90.27747558593751Q103.682478125,90.28007558593751,103.956578125,90.5541755859375Q104.232578125,90.8302755859375,104.230078125,91.2190755859375Q104.227478125,91.60707558593751,103.953178125,91.8806755859375Q103.679978125,92.15327558593751,103.294878125,92.1549755859375L103.292578125,92.1549755859375L103.290078125,92.1549755859375L103.290078125,92.1549755859375Z" fill-rule="evenodd" fill="#0C296E" fill-opacity="1"/></g></g></svg>