<svg xmlns="http://www.w3.org/2000/svg" xmlns:xlink="http://www.w3.org/1999/xlink" fill="none" version="1.1" width="128" height="128" viewBox="0 0 128 128"><defs><clipPath id="master_svg0_294_32374/294_32236"><rect x="0" y="0" width="128" height="128" rx="0"/></clipPath></defs><g clip-path="url(#master_svg0_294_32374/294_32236)"><g><path d="M104.3599853515625,59.427490234375L105.0374833515625,59.427490234375Q105.0872113515625,59.427490234375,105.1331543515625,59.408460234375Q105.1790963515625,59.389430234375,105.2142603515625,59.354267234375Q105.2494223515625,59.319104234375,105.2684533515625,59.273161034375Q105.2874833515625,59.227218334375,105.2874833515625,59.177490234375Q105.2874833515625,59.127762134375,105.2684533515625,59.081819434375Q105.2494223515625,59.035876234375,105.2142603515625,59.000713234375Q105.1790963515625,58.965550234375,105.1331543515625,58.946520234375Q105.0872113515625,58.927490234375,105.0374833515625,58.927490234375L104.3599853515625,58.927490234375Q104.3102572515625,58.927490234375,104.2643145515625,58.946520234375Q104.2183713515625,58.965550234375,104.1832083515625,59.000713234375Q104.1480453515625,59.035876234375,104.1290153515625,59.081819434375Q104.1099853515625,59.127762134375,104.1099853515625,59.177490234375Q104.1099853515625,59.227218334375,104.1290153515625,59.273161034375Q104.1480453515625,59.319104234375,104.1832083515625,59.354267234375Q104.2183713515625,59.389430234375,104.2643145515625,59.408460234375Q104.3102572515625,59.427490234375,104.3599853515625,59.427490234375Z" fill-rule="evenodd" fill="#0C296E" fill-opacity="1"/></g><g><path d="M105.4775390625,58.927490234375L107.1044190625,58.927490234375Q107.1541390625,58.927490234375,107.2000890625,58.946520234375Q107.2460290625,58.965550234375,107.2811890625,59.000713234375Q107.3163590625,59.035876234375,107.3353890625,59.081819434375Q107.3544190625,59.127762134375,107.3544190625,59.177490234375Q107.3544190625,59.227218334375,107.3353890625,59.273161034375Q107.3163590625,59.319104234375,107.2811890625,59.354267234375Q107.2460290625,59.389430234375,107.2000890625,59.408460234375Q107.1541390625,59.427490234375,107.1044190625,59.427490234375L105.4775390625,59.427490234375Q105.4278109625,59.427490234375,105.3818682625,59.408460234375Q105.3359250625,59.389430234375,105.3007620625,59.354267234375Q105.2655990625,59.319104234375,105.2465690625,59.273161034375Q105.2275390625,59.227218334375,105.2275390625,59.177490234375Q105.2275390625,59.127762134375,105.2465690625,59.081819434375Q105.2655990625,59.035876234375,105.3007620625,59.000713234375Q105.3359250625,58.965550234375,105.3818682625,58.946520234375Q105.4278109625,58.927490234375,105.4775390625,58.927490234375ZM110.3581690625,59.427490234375L113.6119090625,59.427490234375Q113.6616390625,59.427490234375,113.7075790625,59.408460234375Q113.75352906250001,59.389430234375,113.7886890625,59.354267234375Q113.8238490625,59.319104234375,113.8428790625,59.273161034375Q113.8619090625,59.227218334375,113.8619090625,59.177490234375Q113.8619090625,59.127762134375,113.8428790625,59.081819434375Q113.8238490625,59.035876234375,113.7886890625,59.000713234375Q113.75352906250001,58.965550234375,113.7075790625,58.946520234375Q113.6616390625,58.927490234375,113.6119090625,58.927490234375L110.3581690625,58.927490234375Q110.3084390625,58.927490234375,110.2624890625,58.946520234375Q110.21654906250001,58.965550234375,110.1813890625,59.000713234375Q110.1462290625,59.035876234375,110.1271990625,59.081819434375Q110.1081690625,59.127762134375,110.1081690625,59.177490234375Q110.1081690625,59.227218334375,110.1271990625,59.273161034375Q110.1462290625,59.319104234375,110.1813890625,59.354267234375Q110.21654906250001,59.389430234375,110.2624890625,59.408460234375Q110.3084390625,59.427490234375,110.3581690625,59.427490234375ZM116.8656390625,59.427490234375L120.11943906249999,59.427490234375Q120.1691390625,59.427490234375,120.2150390625,59.408460234375Q120.2610390625,59.389430234375,120.2962390625,59.354267234375Q120.3313390625,59.319104234375,120.3503390625,59.273161034375Q120.36943906249999,59.227218334375,120.36943906249999,59.177490234375Q120.36943906249999,59.127762134375,120.3503390625,59.081819434375Q120.3313390625,59.035876234375,120.2962390625,59.000713234375Q120.2610390625,58.965550234375,120.2150390625,58.946520234375Q120.1691390625,58.927490234375,120.11943906249999,58.927490234375L116.8656390625,58.927490234375Q116.81593906250001,58.927490234375,116.7700390625,58.946520234375Q116.7240390625,58.965550234375,116.6888390625,59.000713234375Q116.6537390625,59.035876234375,116.6347390625,59.081819434375Q116.6156390625,59.127762134375,116.6156390625,59.177490234375Q116.6156390625,59.227218334375,116.6347390625,59.273161034375Q116.6537390625,59.319104234375,116.6888390625,59.354267234375Q116.7240390625,59.389430234375,116.7700390625,59.408460234375Q116.81593906250001,59.427490234375,116.8656390625,59.427490234375ZM123.3731390625,59.427490234375L125.00003906250001,59.427490234375Q125.0497390625,59.427490234375,125.0957390625,59.408460234375Q125.1416390625,59.389430234375,125.1768390625,59.354267234375Q125.2119390625,59.319104234375,125.2310390625,59.273161034375Q125.25003906250001,59.227218334375,125.25003906250001,59.177490234375Q125.25003906250001,59.127762134375,125.2310390625,59.081819434375Q125.2119390625,59.035876234375,125.1768390625,59.000713234375Q125.1416390625,58.965550234375,125.0957390625,58.946520234375Q125.0497390625,58.927490234375,125.00003906250001,58.927490234375L123.3731390625,58.927490234375Q123.3234390625,58.927490234375,123.2775390625,58.946520234375Q123.2315390625,58.965550234375,123.1963390625,59.000713234375Q123.1612390625,59.035876234375,123.1422390625,59.081819434375Q123.1231390625,59.127762134375,123.1231390625,59.177490234375Q123.1231390625,59.227218334375,123.1422390625,59.273161034375Q123.1612390625,59.319104234375,123.1963390625,59.354267234375Q123.2315390625,59.389430234375,123.2775390625,59.408460234375Q123.3234390625,59.427490234375,123.3731390625,59.427490234375Z" fill-rule="evenodd" fill="#0C296E" fill-opacity="1"/></g><g><path d="M124.7500301796875,59.427490234375L124.7500301796875,60.022491234375Q124.7500301796875,60.072219234375,124.7690601796875,60.118162234375Q124.7880901796875,60.164105234375,124.8232541796875,60.199270234375Q124.8584171796875,60.234430234375,124.9043591796875,60.253460234375Q124.9503021796875,60.272490234375,125.0000301796875,60.272490234375Q125.0497581796875,60.272490234375,125.0957011796875,60.253460234375Q125.1416441796875,60.234430234375,125.1768041796875,60.199270234375Q125.2119741796875,60.164105234375,125.2310041796875,60.118162234375Q125.2500341796875,60.072219234375,125.2500341796875,60.022491234375L125.2500341796875,59.177490234375Q125.2500341796875,59.127762134375,125.2310041796875,59.081819434375Q125.2119741796875,59.035876234375,125.1768041796875,59.000713234375Q125.1416441796875,58.965550234375,125.0957011796875,58.946520234375Q125.0497581796875,58.927490234375,125.0000301796875,58.927490234375L124.0975341796875,58.927490234375Q124.0478060796875,58.927490234375,124.0018633796875,58.946520234375Q123.9559201796875,58.965550234375,123.9207571796875,59.000713234375Q123.8855941796875,59.035876234375,123.8665641796875,59.081819434375Q123.8475341796875,59.127762134375,123.8475341796875,59.177490234375Q123.8475341796875,59.227218334375,123.8665641796875,59.273161034375Q123.8855941796875,59.319104234375,123.9207571796875,59.354267234375Q123.9559201796875,59.389430234375,124.0018633796875,59.408460234375Q124.0478060796875,59.427490234375,124.0975341796875,59.427490234375L124.7500301796875,59.427490234375Z" fill-rule="evenodd" fill="#0C296E" fill-opacity="1"/></g><g><path d="M124.75,59.177490234375Q124.75,59.127762134375,124.76903,59.081819434375Q124.78806,59.035876234375,124.823223,59.000713234375Q124.858386,58.965550234375,124.9043292,58.946520234375Q124.9502719,58.927490234375,125,58.927490234375Q125.0497281,58.927490234375,125.0956708,58.946520234375Q125.141614,58.965550234375,125.176777,59.000713234375Q125.21194,59.035876234375,125.23097,59.081819434375Q125.25,59.127762134375,125.25,59.177490234375L125.25,60.680360234375Q125.25,60.730090234375,125.23097,60.776030234375Q125.21194,60.821980234375,125.176777,60.857140234375Q125.141614,60.892300234375,125.0956708,60.911330234375Q125.0497281,60.930360234375,125,60.930360234375Q124.9502719,60.930360234375,124.9043292,60.911330234375Q124.858386,60.892300234375,124.823223,60.857140234375Q124.78806,60.821980234375,124.76903,60.776030234375Q124.75,60.730090234375,124.75,60.680360234375L124.75,59.177490234375ZM124.75,63.686120234375L124.75,66.691860234375Q124.75,66.741590234375,124.76903,66.787530234375Q124.78806,66.833480234375,124.823223,66.868640234375Q124.858386,66.903800234375,124.9043292,66.922830234375Q124.9502719,66.941860234375,125,66.941860234375Q125.0497281,66.941860234375,125.0956708,66.922830234375Q125.141614,66.903800234375,125.176777,66.868640234375Q125.21194,66.833480234375,125.23097,66.787530234375Q125.25,66.741590234375,125.25,66.691860234375L125.25,63.686120234375Q125.25,63.636390234375,125.23097,63.590440234375Q125.21194,63.544500234375,125.176777,63.509340234375Q125.141614,63.474170234375,125.0956708,63.455150234375Q125.0497281,63.436120234375,125,63.436120234375Q124.9502719,63.436120234375,124.9043292,63.455150234375Q124.858386,63.474170234375,124.823223,63.509340234375Q124.78806,63.544500234375,124.76903,63.590440234375Q124.75,63.636390234375,124.75,63.686120234375ZM124.75,69.697590234375L124.75,72.70339023437501Q124.75,72.753090234375,124.76903,72.798990234375Q124.78806,72.844990234375,124.823223,72.880190234375Q124.858386,72.915290234375,124.9043292,72.934290234375Q124.9502719,72.95339023437501,125,72.95339023437501Q125.0497281,72.95339023437501,125.0956708,72.934290234375Q125.141614,72.915290234375,125.176777,72.880190234375Q125.21194,72.844990234375,125.23097,72.798990234375Q125.25,72.753090234375,125.25,72.70339023437501L125.25,69.697590234375Q125.25,69.647890234375,125.23097,69.601990234375Q125.21194,69.555990234375,125.176777,69.520790234375Q125.141614,69.485690234375,125.0956708,69.466690234375Q125.0497281,69.447590234375,125,69.447590234375Q124.9502719,69.447590234375,124.9043292,69.466690234375Q124.858386,69.485690234375,124.823223,69.520790234375Q124.78806,69.555990234375,124.76903,69.601990234375Q124.75,69.647890234375,124.75,69.697590234375ZM124.75,75.709090234375L124.75,78.714890234375Q124.75,78.76459023437499,124.76903,78.810490234375Q124.78806,78.856490234375,124.823223,78.891590234375Q124.858386,78.926790234375,124.9043292,78.945790234375Q124.9502719,78.964890234375,125,78.964890234375Q125.0497281,78.964890234375,125.0956708,78.945790234375Q125.141614,78.926790234375,125.176777,78.891590234375Q125.21194,78.856490234375,125.23097,78.810490234375Q125.25,78.76459023437499,125.25,78.714890234375L125.25,75.709090234375Q125.25,75.659390234375,125.23097,75.613390234375Q125.21194,75.567490234375,125.176777,75.532290234375Q125.141614,75.497190234375,125.0956708,75.478190234375Q125.0497281,75.459090234375,125,75.459090234375Q124.9502719,75.459090234375,124.9043292,75.478190234375Q124.858386,75.497190234375,124.823223,75.532290234375Q124.78806,75.567490234375,124.76903,75.613390234375Q124.75,75.659390234375,124.75,75.709090234375ZM124.75,81.720590234375L124.75,84.726390234375Q124.75,84.776090234375,124.76903,84.821990234375Q124.78806,84.867990234375,124.823223,84.903090234375Q124.858386,84.938290234375,124.9043292,84.957290234375Q124.9502719,84.976390234375,125,84.976390234375Q125.0497281,84.976390234375,125.0956708,84.957290234375Q125.141614,84.938290234375,125.176777,84.903090234375Q125.21194,84.867990234375,125.23097,84.821990234375Q125.25,84.776090234375,125.25,84.726390234375L125.25,81.720590234375Q125.25,81.67089023437501,125.23097,81.624990234375Q125.21194,81.578990234375,125.176777,81.543790234375Q125.141614,81.508690234375,125.0956708,81.489690234375Q125.0497281,81.470590234375,125,81.470590234375Q124.9502719,81.470590234375,124.9043292,81.489690234375Q124.858386,81.508690234375,124.823223,81.543790234375Q124.78806,81.578990234375,124.76903,81.624990234375Q124.75,81.67089023437501,124.75,81.720590234375ZM124.75,87.732090234375L124.75,89.234990234375Q124.75,89.284690234375,124.76903,89.330690234375Q124.78806,89.376590234375,124.823223,89.411790234375Q124.858386,89.446890234375,124.9043292,89.465990234375Q124.9502719,89.484990234375,125,89.484990234375Q125.0497281,89.484990234375,125.0956708,89.465990234375Q125.141614,89.446890234375,125.176777,89.411790234375Q125.21194,89.376590234375,125.23097,89.330690234375Q125.25,89.284690234375,125.25,89.234990234375L125.25,87.732090234375Q125.25,87.68239023437499,125.23097,87.636490234375Q125.21194,87.590490234375,125.176777,87.55529023437501Q125.141614,87.52019023437501,125.0956708,87.501190234375Q125.0497281,87.482090234375,125,87.482090234375Q124.9502719,87.482090234375,124.9043292,87.501190234375Q124.858386,87.52019023437501,124.823223,87.55529023437501Q124.78806,87.590490234375,124.76903,87.636490234375Q124.75,87.68239023437499,124.75,87.732090234375Z" fill-rule="evenodd" fill="#0C296E" fill-opacity="1"/></g><g><path d="M124.7500301796875,88.9850156484375L124.0975341796875,88.9850156484375Q124.0478060796875,88.9850156484375,124.0018633796875,89.0040456484375Q123.9559201796875,89.0230756484375,123.9207571796875,89.0582396484375Q123.8855941796875,89.0934016484375,123.8665641796875,89.1393446484375Q123.8475341796875,89.1852876484375,123.8475341796875,89.2350156484375Q123.8475341796875,89.2847436484375,123.8665641796875,89.3306866484375Q123.8855941796875,89.3766296484375,123.9207571796875,89.4117946484375Q123.9559201796875,89.4469546484375,124.0018633796875,89.4659846484375Q124.0478060796875,89.4850146484375,124.0975341796875,89.4850146484375L125.0000301796875,89.4850146484375Q125.0497581796875,89.4850146484375,125.0957011796875,89.4659846484375Q125.1416441796875,89.4469546484375,125.1768041796875,89.4117946484375Q125.2119741796875,89.3766296484375,125.2310041796875,89.3306866484375Q125.2500341796875,89.2847436484375,125.2500341796875,89.2350156484375L125.2500341796875,88.3900146484375Q125.2500341796875,88.3402865484375,125.2310041796875,88.2943438484375Q125.2119741796875,88.2484006484375,125.1768041796875,88.2132376484375Q125.1416441796875,88.1780746484375,125.0957011796875,88.1590446484375Q125.0497581796875,88.1400146484375,125.0000301796875,88.1400146484375Q124.9503021796875,88.1400146484375,124.9043591796875,88.1590446484375Q124.8584171796875,88.1780746484375,124.8232541796875,88.2132376484375Q124.7880901796875,88.2484006484375,124.7690601796875,88.2943438484375Q124.7500301796875,88.3402865484375,124.7500301796875,88.3900146484375L124.7500301796875,88.9850156484375Z" fill-rule="evenodd" fill="#0C296E" fill-opacity="1"/></g><g><path d="M117.33001708984375,88.987548828125L119.24751708984375,88.987548828125Q119.29724708984375,88.987548828125,119.34318708984375,89.006578828125Q119.38912708984375,89.025608828125,119.42429708984375,89.060771828125Q119.45945708984375,89.095934828125,119.47848708984375,89.141878028125Q119.49751708984375,89.187820728125,119.49751708984375,89.237548828125Q119.49751708984375,89.287276928125,119.47848708984375,89.333219628125Q119.45945708984375,89.379162828125,119.42429708984375,89.414325828125Q119.38912708984375,89.449488828125,119.34318708984375,89.468518828125Q119.29724708984375,89.487548828125,119.24751708984375,89.487548828125L117.33001708984375,89.487548828125Q117.28028898984375,89.487548828125,117.23434628984376,89.468518828125Q117.18840308984375,89.449488828125,117.15324008984375,89.414325828125Q117.11807708984375,89.379162828125,117.09904708984375,89.333219628125Q117.08001708984375,89.287276928125,117.08001708984375,89.237548828125Q117.08001708984375,89.187820728125,117.09904708984375,89.141878028125Q117.11807708984375,89.095934828125,117.15324008984375,89.060771828125Q117.18840308984375,89.025608828125,117.23434628984376,89.006578828125Q117.28028898984375,88.987548828125,117.33001708984375,88.987548828125ZM125.00001708984375,88.987548828125L123.08251708984375,88.987548828125Q123.03278708984375,88.987548828125,122.98684708984375,89.006578828125Q122.94089708984374,89.025608828125,122.90573708984375,89.060771828125Q122.87057708984375,89.095934828125,122.85154708984375,89.141878028125Q122.83251708984375,89.187820728125,122.83251708984375,89.237548828125Q122.83251708984375,89.287276928125,122.85154708984375,89.333219628125Q122.87057708984375,89.379162828125,122.90573708984375,89.414325828125Q122.94089708984374,89.449488828125,122.98684708984375,89.468518828125Q123.03278708984375,89.487548828125,123.08251708984375,89.487548828125L125.00001708984375,89.487548828125Q125.04974708984375,89.487548828125,125.09568708984375,89.468518828125Q125.14162708984375,89.449488828125,125.17678708984376,89.414325828125Q125.21195708984375,89.379162828125,125.23098708984375,89.333219628125Q125.25001708984375,89.287276928125,125.25001708984375,89.237548828125Q125.25001708984375,89.187820728125,125.23098708984375,89.141878028125Q125.21195708984375,89.095934828125,125.17678708984376,89.060771828125Q125.14162708984375,89.025608828125,125.09568708984375,89.006578828125Q125.04974708984375,88.987548828125,125.00001708984375,88.987548828125Z" fill-rule="evenodd" fill="#0C296E" fill-opacity="1"/></g><g><path d="M116.54000832421875,88.987548828125L115.69500732421875,88.987548828125Q115.64527922421875,88.987548828125,115.59933652421876,89.006578828125Q115.55339332421875,89.025608828125,115.51823032421875,89.060771828125Q115.48306732421875,89.095934828125,115.46403732421875,89.141878028125Q115.44500732421875,89.187820728125,115.44500732421875,89.237548828125Q115.44500732421875,89.287276928125,115.46403732421875,89.333219628125Q115.48306732421875,89.379162828125,115.51823032421875,89.414325828125Q115.55339332421875,89.449488828125,115.59933652421876,89.468518828125Q115.64527922421875,89.487548828125,115.69500732421875,89.487548828125L116.54000832421875,89.487548828125Q116.58973632421875,89.487548828125,116.63567932421876,89.468518828125Q116.68162232421875,89.449488828125,116.71678732421876,89.414325828125Q116.75194732421875,89.379162828125,116.77097732421875,89.333219628125Q116.79000732421875,89.287276928125,116.79000732421875,89.237548828125Q116.79000732421875,89.187820728125,116.77097732421875,89.141878028125Q116.75194732421875,89.095934828125,116.71678732421876,89.060771828125Q116.68162232421875,89.025608828125,116.63567932421876,89.006578828125Q116.58973632421875,88.987548828125,116.54000832421875,88.987548828125Z" fill-rule="evenodd" fill="#0C296E" fill-opacity="1"/></g><g><path d="M81.96044140625,89.4795292578125Q81.47224140624999,88.8713488578125,80.58104140625,88.7122342578125Q80.47904140625,88.6940352578125,80.39414140625,88.7532502578125Q80.30914140625,88.8124652578125,80.29094140625,88.9144067078125Q80.28224140625,88.9633607578125,80.29284140625,89.0119329578125Q80.30354140625,89.0605052578125,80.33194140625,89.1013002578125Q80.36044140625,89.1420962578125,80.40234140625,89.1689042578125Q80.44414140625,89.1957122578125,80.49314140625,89.2044522578125Q81.19974140625,89.3306052578125,81.57054140625,89.7925302578125Q81.97934140625,90.3016842578125,81.82134140625,91.0845042578125Q81.80094140625,91.1860142578125,81.85824140625,91.2722742578125Q81.91554140625,91.3585342578125,82.01704140625,91.3790042578125Q82.06574140625,91.3888342578125,82.11454140625,91.3792642578125Q82.16334140625,91.3696942578125,82.20474140625,91.3421842578125Q82.24624140625,91.3146642578125,82.27394140625,91.2733942578125Q82.30164140625,91.2321242578125,82.31154140625,91.1833742578125Q82.51574140625,90.1711642578125,81.96044140625,89.4795292578125ZM68.00147140625,89.6910762578125Q68.48454040625,90.2320942578125,69.05972140625,90.7187842578125Q69.09768140625,90.7509042578125,69.12046140625,90.7951042578125Q69.14324140625,90.8393042578125,69.14737140625,90.8888642578125Q69.15150140625,90.9384242578125,69.13635140625,90.9857842578125Q69.12120140625,91.0331442578125,69.08908140625,91.0711142578125Q69.05696140625,91.1090742578125,69.01275140625,91.1318542578125Q68.96855140625,91.1546342578125,68.91900140625,91.15876425781249Q68.86944140625,91.1628942578125,68.82207140625,91.1477442578125Q68.77471140625,91.1325942578125,68.73674940625,91.1004742578125Q68.13499440625,90.5913042578125,67.62871440625,90.0243242578125L67.62845840625,90.0240342578125Q67.56494140625,89.9529042578125,67.56494140625,89.8575282578125Q67.56494140625,89.8078002578125,67.58397140625,89.7618572578125Q67.60300140625,89.7159152578125,67.63816440625,89.6807522578125Q67.67332740625,89.6455892578125,67.71927060625,89.6265582578125Q67.76521330625,89.6075282578125,67.81494140625,89.6075282578125Q67.86835320625,89.6075282578125,67.91710140625,89.6293552578125Q67.96585040625,89.6511812578125,68.00142440625,89.6910222578125L68.00147140625,89.6910762578125ZM77.73225140625,89.9982842578125Q77.12285140624999,91.2663642578125,78.12524140625,93.0982042578125Q78.14914140625,93.1418342578125,78.18784140625,93.1730042578125Q78.22664140625,93.2041642578125,78.27434140625,93.2181342578125Q78.32204140625,93.2321042578125,78.37154140625,93.2267442578125Q78.42094140625,93.2213842578125,78.46464140625,93.1975042578125Q78.50824140625,93.1736342578125,78.53934140625,93.1348842578125Q78.57054140625,93.0961342578125,78.58454140625,93.0484142578125Q78.59844140625,93.0006842578125,78.59314140625,92.9512442578125Q78.58774140625,92.9018142578125,78.56394140625,92.8581842578125Q77.68471140625,91.2515442578125,78.18294140625,90.2148642578125Q78.20444140625,90.1700442578125,78.20724140625,90.1203842578125Q78.20994140625,90.0707342578125,78.19344140625,90.0238142578125Q78.17704140625,89.9768842578125,78.14384140625,89.9398342578125Q78.11074140625,89.9027832578125,78.06584140625,89.8812432578125Q77.97254140625,89.8363882578125,77.87484140625,89.8706692578125Q77.77711140625,89.9049492578125,77.73225140625,89.9982842578125ZM71.31196140625,92.7827142578125Q72.69610140625,93.4718342578125,74.19664140625,93.8447442578125Q74.29714140625,93.8697142578125,74.38586140625,93.81631425781251Q74.47458140625,93.7629142578125,74.49955140625,93.6624142578125Q74.52453140625,93.5619142578125,74.47113140625,93.4731942578125Q74.41773140625,93.3844742578125,74.31723140625,93.3595042578125Q72.86988140625,92.9998142578125,71.53480140625,92.3351142578125Q71.49029140625,92.3129542578125,71.44068140625,92.3095142578125Q71.39107140625,92.3060742578125,71.34392140625,92.3218742578125Q71.29677140625,92.3376842578125,71.25926140625,92.3703342578125Q71.22175140625001,92.4029742578125,71.19958140625,92.4474942578125Q71.17742140625,92.4920042578125,71.17398140625,92.5416142578125Q71.17054140625,92.5912242578125,71.18634140625,92.6383742578125Q71.20215140625,92.6855242578125,71.23480140625,92.7230342578125Q71.26744140625,92.7605442578125,71.31196140625,92.7827142578125ZM77.25134140625,94.2245042578125Q79.03914140625,94.2086642578125,80.30024140625,93.6063942578125Q80.39364140625,93.5617642578125,80.42814140625,93.4641342578125Q80.46274140625,93.3665042578125,80.41804140625,93.2730642578125Q80.39664140625,93.2281842578125,80.35964140625,93.1949242578125Q80.32274140625,93.1616742578125,80.27584140625,93.1450942578125Q80.22894140625,93.1285142578125,80.17924140625,93.1311442578125Q80.12964140625,93.1337742578125,80.08474140625,93.1552042578125Q78.92374140625,93.7096642578125,77.24691140625,93.7245242578125Q77.14336140625,93.7254442578125,77.07079140625,93.7993142578125Q76.99822140625,93.8731842578125,76.99913140625,93.9767342578125Q76.99957140625,94.0264542578125,77.01901140625,94.0722242578125Q77.03845140625,94.1180042578125,77.07392140625,94.15285425781249Q77.10939140625,94.1877042578125,77.15550140625,94.2063242578125Q77.20161140625,94.2249442578125,77.25134140625,94.2245042578125ZM99.90234140625,94.6689342578125Q99.94384140625,94.6595942578125,99.97994140624999,94.6370242578125Q100.01604140625,94.6144542578125,100.04264140625,94.5812142578125Q100.06924140625,94.5479642578125,100.08334140625,94.5077842578125Q100.09744140625,94.4676142578125,100.09744140625,94.4250342578125Q100.09744140625,94.3753042578125,100.07844140625,94.3293642578125Q100.05934140625,94.2834142578125,100.02424140625,94.2482542578125Q99.98904140625001,94.2130942578125,99.94314140624999,94.1940642578125Q99.89714140625,94.1750342578125,99.84744140625,94.1750342578125Q99.81964140625,94.1750342578125,99.79254140625,94.1811242578125Q99.03634140625,94.3512542578125,98.30604140625,94.5051142578125Q98.25734140624999,94.51536425781251,98.21634140625,94.5434642578125Q98.17534140625,94.5715542578125,98.14814140625,94.6132142578125Q98.12104140625,94.6548642578125,98.11184140625,94.7037442578125Q98.10274140625,94.7526242578125,98.11294140625,94.8012842578125Q98.13434140625,94.9026142578125,98.22104140625,94.9591642578125Q98.30784140624999,95.0157242578125,98.40914140625,94.9943742578125Q99.14274140625,94.8398042578125,99.90234140625,94.6689342578125ZM80.39374140625,95.2666442578125Q81.60634140625,95.8958842578125,83.33644140625,96.1923842578125Q83.43854140625,96.2098842578125,83.52304140625,96.1500742578125Q83.60754140625,96.0902742578125,83.62504140625,95.9882142578125Q83.63344140625,95.9391942578125,83.62244140625,95.8906942578125Q83.61144140625,95.8422042578125,83.58274140625,95.8016042578125Q83.55404140625001,95.7610042578125,83.51194140625,95.7344842578125Q83.46994140625,95.7079742578125,83.42094140625,95.6995742578125Q81.76754140625,95.4162142578125,80.62404140625,94.8228342578125Q80.57984140625,94.7999342578125,80.53034140625,94.7956642578125Q80.48074140625,94.7913942578125,80.43334140625,94.8064142578125Q80.38594140625,94.8214242578125,80.34794140625,94.8534442578125Q80.30984140625,94.8854542578125,80.28694140625,94.9295942578125Q80.23924140625,95.0215142578125,80.27054140625,95.1202342578125Q80.30184140625,95.2189542578125,80.39374140625,95.2666442578125ZM92.43954140625,96.0407442578125Q93.87234140625,95.8497342578125,95.44464140625,95.5711842578125Q95.49364140624999,95.5625042578125,95.53554140625,95.5357542578125Q95.57744140625,95.5090042578125,95.60594140625,95.4682442578125Q95.63444140625,95.4274842578125,95.64514140625,95.3789242578125Q95.65594140625001,95.3303642578125,95.64724140625,95.2814042578125Q95.62914140625,95.1794342578125,95.54434140625,95.1201142578125Q95.45944140625,95.0607842578125,95.35744140625,95.0788542578125Q93.79574140625,95.3555342578125,92.37344140625,95.5451242578125Q92.32414140624999,95.5516942578125,92.28114140625,95.5766342578125Q92.23814140625001,95.6015642578125,92.20794140625,95.6410642578125Q92.17774140625,95.6805642578125,92.16494140625,95.7286242578125Q92.15214140625,95.7766742578125,92.15874140625,95.8259742578125Q92.17234140625,95.9286142578125,92.25464140625,95.9915242578125Q92.33694140624999,96.0544242578125,92.43954140625,96.0407442578125ZM86.37994140625,96.4536542578125Q87.78674140625,96.4771842578125,89.42054140625,96.3576242578125Q89.47014140625001,96.3539942578125,89.51454140625,96.3316642578125Q89.55904140625,96.3093242578125,89.59154140625,96.2716942578125Q89.62404140625,96.2340542578125,89.63964140625,96.1868442578125Q89.65524140625,96.1396442578125,89.65164140625001,96.0900442578125Q89.64404140625,95.9867642578125,89.56574140625,95.9190842578125Q89.48734140625,95.8514042578125,89.38404140624999,95.8589542578125Q87.77264140625,95.9768742578125,86.38834140624999,95.9537242578125Q86.33864140625,95.9528942578125,86.29234140625,95.9711542578125Q86.24614140625,95.9894142578125,86.21034140625,96.0239842578125Q86.17464140625,96.0585542578125,86.15484140625,96.1041642578125Q86.13504140625,96.1497842578125,86.13424140625,96.1995042578125Q86.13244140625,96.3030442578125,86.20444140625,96.3774842578125Q86.27644140625,96.4519242578125,86.37994140625,96.4536542578125Z" fill-rule="evenodd" fill="#0C296E" fill-opacity="1"/></g><g><path d="M10.07544,62.291996765625L10.07665,62.291126765625Q10.08866,62.282502765625,10.10013,62.273184765625Q10.1714,62.215324765625,10.217469999999999,62.135923765625Q10.26353,62.056522765625,10.27839,61.965936465625L10.27864,61.964402265625Q10.28499,61.924959365625,10.28499,61.885009765625Q10.28499,61.724066765625,10.191099999999999,61.593343765625Q10.18248,61.581336765625,10.17316,61.569860765625Q10.10196,61.482153765625,9.99996,61.433581765625Q9.897960000000001,61.385009765625,9.78499,61.385009765625Q9.62404,61.385009765625,9.49332,61.478894765625Q9.46774,61.497258765625,9.431519999999999,61.523233765625Q3.526634,65.757839765625,2.645185,70.087859765625Q1.86963,73.897709765625,5.1613500000000005,77.223909765625Q9.043330000000001,81.146609765625,18.540100000000002,84.240409765625Q28.0463,87.337109765625,28.8973,91.119109765625Q29.2265,92.582609765625,28.3382,94.48580976562499Q27.779,95.684009765625,26.0717,98.145309765625Q24.5445,100.347009765625,23.9523,101.471009765625Q22.934,103.403509765625,22.8803,104.99600976562499Q22.7448,109.01490976562499,28.7262,112.179509765625Q28.8359,112.23750976562499,28.96,112.23750976562499L28.9627,112.23750976562499Q29.0366,112.23710976562501,29.1072,112.215409765625Q29.2022,112.18610976562499,29.2788,112.12270976562499Q29.3554,112.059209765625,29.4019,111.971309765625Q29.46,111.86160976562499,29.46,111.73750976562499L29.46,111.735909765625Q29.4598,111.667909765625,29.4414,111.602509765625Q29.423,111.537009765625,29.3879,111.47890976562499Q29.3527,111.42070976562499,29.3033,111.374009765625Q29.2539,111.327309765625,29.1938,111.295509765625Q23.7654,108.423509765625,23.8798,105.029709765625Q23.9257,103.666609765625,24.837,101.937109765625Q25.4008,100.867009765625,26.8934,98.71520976562499Q28.6491,96.18410976562501,29.2444,94.908809765625Q30.2771,92.696209765625,29.8729,90.899609765625Q29.3917,88.761209765625,26.8715,86.958809765625Q24.1595,85.01920976562499,18.849800000000002,83.289609765625Q9.583590000000001,80.27090976562499,5.87213,76.52050976562501Q2.9560547,73.573909765625,3.625088,70.287329765625Q4.4282699999999995,66.341809765625,10.014289999999999,62.335869765625Q10.049769999999999,62.310431765625,10.07544,62.291996765625Z" fill-rule="evenodd" fill="#0C296E" fill-opacity="1"/></g><g><path d="M20.8033758203125,59.179494765625Q20.8379758203125,59.232274765625,20.8934758203125,59.262314765625Q20.9489758203125,59.292344765625,21.0120858203125,59.292444765625L21.0145858203125,59.292454765624996Q21.0898758203125,59.292564765625,21.152705820312498,59.251084765625L23.8331658203125,57.481484765625Q24.1398558203125,57.347464765625,24.2127858203125,57.018424765625Q24.2824058203125,56.704394765625,24.0898958203125,56.439154765625L23.5411758203125,55.618514765625Q23.4070858203125,55.312474765625,23.0784458203125,55.239614765625Q22.7648058203125,55.170094765625,22.4998458203125,55.362034765625L19.9865358203125,57.020684765625L19.1982458203125,55.818564765625L18.4084858203125,54.613694765625L20.8981158203125,52.971504765625Q21.2048458203125,52.837484765625,21.277795820312498,52.508424765625Q21.3474058203125,52.194394765625,21.1548958203125,51.929161765625L20.6061758203125,51.108506765625Q20.4720858203125,50.802467765625,20.1434458203125,50.729617765625Q19.8298058203125,50.660092765625,19.5648358203125,50.852037765625L16.8272578203125,52.658794765625Q16.7858398203125,52.686124765625,16.7580018203125,52.727214765625Q16.7301648203125,52.768294765625,16.7201298203125,52.816894765625Q16.7100958203125,52.865494765625,16.7193848203125,52.914244765625Q16.7286738203125,52.962994765625,16.7558788203125,53.004494765625L17.8465318203125,54.668434765625Q17.8498238203125,54.674074765625,17.8534058203125,54.679534765625L18.7798058203125,56.092264765625L20.8033758203125,59.179494765625ZM20.2603958203125,57.439014765625004L21.0848058203125,58.696774765625L23.5772258203125,57.051314765625Q23.598635820312502,57.037174765625,23.622475820312502,57.027684765625Q23.7059758203125,56.994434765625,23.7246458203125,56.910214765625Q23.7457458203125,56.815014765625,23.6836458203125,56.730674765625Q23.6802858203125,56.726114765625,23.6771458203125,56.721404765625L23.1121458203125,55.876404765625Q23.0974658203125,55.854464765624996,23.0877058203125,55.829934765625Q23.054455820312498,55.746434765625,22.9702358203125,55.727774765625Q22.8750358203125,55.706664765625,22.7906958203125,55.768764765625Q22.7855258203125,55.772574765625,22.7801658203125,55.776104765625L20.2603958203125,57.439014765625004ZM18.1343858203125,54.195514765625L20.6423158203125,52.541254765625Q20.6636858203125,52.527154765625,20.6874758203125,52.517684765625Q20.7709758203125,52.484434765625,20.7896458203125,52.400214765625Q20.8107458203125,52.305014765625,20.7486458203125,52.220664765625Q20.7452858203125,52.216104765625,20.7421458203125,52.211404765625L20.1771458203125,51.366402765625Q20.162465820312498,51.344459765625,20.152705820312498,51.319935765625Q20.1194558203125,51.236436765625,20.0352358203125,51.217767765625Q19.9400358203125,51.196664765625,19.8556958203125,51.258763765625Q19.850525820312498,51.262566765625,19.845175820312498,51.266099765625L17.3106708203125,52.938824765625L18.1343858203125,54.195514765625Z" fill-rule="evenodd" fill="#0C296E" fill-opacity="1"/></g><g><path d="M20.725021484375,62.4500341796875L13.765031484375001,51.7850341796875L10.912531484375,53.6525341796875C7.922527284375,55.5700341796875,7.135026484375,59.5750341796875,9.052531484375,62.5075341796875C10.970031484375,65.4400341796875,14.917531484375,66.2300341796875,17.962531484375,64.3125341796875L21.232521484375,62.1700341796875C21.300021484375,62.1300341796875,21.352521484375,62.0800341796875,21.395021484375,62.0225341796875L20.725021484375,62.452534179687504L20.725021484375,62.4500341796875Z" fill="#165DFF" fill-opacity="1"/></g><g><path d="M20.8598139453125,62.660581640625L22.2698139453125,61.758081640625L22.2730139453125,61.755981640625Q22.489723945312498,61.612581640625,22.5430339453125,61.325281640625Q22.592553945312503,61.058481640625004,22.4711539453125,60.815681640625Q22.4646339453125,60.802681640624996,22.4566339453125,60.790481640625L15.9135239453125,50.807047040625Q15.7701139453125,50.590341640625,15.4828539453125,50.537026640625Q15.2160439453125,50.487508640625,14.9732439453125,50.608908640625Q14.9592739453125,50.615893640625,14.9462839453125,50.624562640625L13.5937799453125,51.527062640625Q13.5526919453125,51.554479640625,13.5251189453125,51.595463640625Q13.4975459453125,51.636446640625,13.4876319453125,51.684837640625Q13.4777169453125,51.733227640625,13.4869519453125,51.781751640625004Q13.4961859453125,51.830281640625,13.5231809453125,51.871641640625L20.5156839453125,62.586681640625Q20.5427039453125,62.628081640625,20.5834439453125,62.656081640625004Q20.6241939453125,62.684081640624996,20.6725339453125,62.694481640625Q20.7208739453125,62.704781640625,20.7695239453125,62.695981640625Q20.818173945312502,62.687181640625,20.8598139453125,62.660581640625ZM22.0298439453125,61.051381640624996Q22.1255639453125,61.252681640625,21.9983439453125,61.338181640625L20.7989839453125,62.105881640625L14.0771439453125,51.805621640625L15.2098139453125,51.049809640625Q15.4114039453125,50.954301640625,15.4965639453125,51.082982640625L22.0298439453125,61.051381640624996Z" fill-rule="evenodd" fill="#0C296E" fill-opacity="1"/></g><g><path d="M21.865961640625,46.0024290625L21.865991640625,46.0026190625Q21.872861640625,46.0464190625,21.887341640625,46.0883190625Q21.901821640625002,46.130219062500004,21.923451640625,46.1689290625Q21.945071640625,46.2076290625,21.973171640625,46.2419190625Q22.001271640625,46.2762190625,22.034961640625,46.3050290625Q22.068651640625,46.3338490625,22.106891640625,46.3562790625Q22.145131640625,46.3787190625,22.186721640625,46.3940790625Q22.228311640625,46.4094390625,22.271951640624998,46.4172390625Q22.315601640625,46.4250390625,22.359931640625,46.4250390625L22.363941640625,46.4250190625Q22.400951640625,46.4247290625,22.437511640625,46.4189790625Q22.535761640625,46.4035490625,22.620631640625,46.3516990625Q22.705501640625002,46.2998390625,22.764061640625002,46.2194490625Q22.859931640625,46.0878590625,22.859931640625,45.9250390625L22.859901640625,45.9198090625Q22.859521640625,45.8834090625,22.853871640625,45.8474590625L22.853831640625,45.8471890625L22.233911640625,41.9002044625L22.233871640625,41.8999592625Q22.227001640624998,41.8561620625,22.212521640625,41.8142580625Q22.198041640625,41.7723540625,22.176411640625,41.7336510625Q22.154791640625,41.6949480625,22.126691640625,41.6606540625Q22.098591640625,41.6263610625,22.064901640625,41.5975460625Q22.031201640625,41.5687310625,21.992971640625,41.5462940625Q21.954731640625,41.5238580625,21.913141640625,41.5084990625Q21.871551640625,41.4931410625,21.827911640625,41.4853400625Q21.784261640625,41.4775390625,21.739931640625,41.4775390625L21.735921640625,41.4775550625Q21.698911640625,41.4778520625,21.662351640625,41.4835940625Q21.564101640625,41.4990260625,21.479231640625,41.5508820625Q21.394361640625,41.6027380625,21.335801640625,41.6831250625Q21.239931640625,41.8147220625,21.239931640625,41.9775390625L21.239961640625,41.9827695525Q21.240341640625,42.0191635625,21.245981640625,42.0551188625L21.246021640625,42.0553640625L21.865961640625,46.0024290625ZM27.505231640625,42.6106110625L27.505231640625,42.610488062499996L27.505431640624998,42.6101400625Q27.539931640625,42.5221040625,27.539931640625,42.4275360625Q27.539931640625,42.3522120625,27.517731640625,42.2802310625Q27.495531640625,42.2082500625,27.453131640625,42.1460010625Q27.410731640625002,42.0837530625,27.351831640625,42.0367619625Q27.293031640625,41.9897713625,27.222931640625,41.9622099625L27.222531640625,41.9620731625Q27.134531640625,41.9275359625,27.039931640625,41.9275360625Q26.964631640625,41.9275360625,26.892631640624998,41.9497273625Q26.820631640625002,41.9719186625,26.758431640625,42.0143314625Q26.696131640624998,42.0567443625,26.649131640625,42.1156140625Q26.602131640625,42.1744830625,26.574631640625,42.2445840625L26.574531640625,42.2447410625L25.222151640625,45.6844590625L25.222101640625,45.6845790625Q25.187431640625,45.772769062500004,25.187431640625,45.8675390625L25.187431640625,45.8687090625Q25.187611640625,45.9438890625,25.209881640625,46.0156790625Q25.232161640625,46.0874790625,25.274561640625002,46.1495590625Q25.316961640625,46.2116290625,25.375741640625,46.2584890625Q25.434521640625,46.3053590625,25.504481640625002,46.3328590625Q25.592671640625,46.3675390625,25.687431640625,46.3675390625L25.688611640625,46.3675290625Q25.763781640624998,46.3673590625,25.835581640625,46.3450790625Q25.907381640624997,46.3228090625,25.969431640625,46.2804090625Q26.031531640624998,46.2380090625,26.078431640625,46.1792290625Q26.125231640625,46.1204490625,26.152731640625,46.0504890625L26.152831640625,46.0503590625L27.505231640625,42.6106110625ZM15.667455640625,45.1655990625L19.502281640625,47.5329890625Q19.623031640625,47.6075390625,19.764931640625,47.6075390625Q19.771421640625,47.6075390625,19.777911640625,47.6073690625Q19.840191640625,47.6057490625,19.900171640625,47.5888990625Q19.960161640625,47.5720490625,20.014171640625,47.5409890625Q20.068181640625,47.5099290625,20.112921640625,47.4665690625Q20.157661640625,47.4232090625,20.190391640625002,47.3701890625Q20.264931640625,47.2494390625,20.264931640625,47.1075390625Q20.264931640625,47.101049062499996,20.264761640625,47.0945590625Q20.263141640625,47.0322790625,20.246291640625,46.972289062499996Q20.229441640624998,46.9123090625,20.198381640625,46.8582990625Q20.167321640625,46.8042890625,20.123961640624998,46.7595490625Q20.080601640624998,46.7148090625,20.027581640625,46.6820790625L16.192759640625,44.3146890625L16.192583640625,44.3145790625Q16.071835640625,44.2400390625,15.929931640625,44.2400390625Q15.923442640625,44.2400390625,15.916955840625,44.2402090625Q15.854671740625,44.2418190625,15.794688640625,44.2586690625Q15.734706640625,44.2755290625,15.680693640625,44.3065890625Q15.626681640625,44.3376390625,15.581942640625,44.3810090625Q15.537203640625,44.4243690625,15.504474640625,44.4773890625Q15.429931640625,44.5981290625,15.429931640625,44.7400390625L15.429975640625,44.7466590625Q15.430703640625,44.8016390625,15.443364640625,44.8551590625Q15.466263640625,44.9519390625,15.524457640625,45.0325990625Q15.582650640625,45.1132490625,15.667279640625,45.1654890625L15.667455640625,45.1655990625ZM23.926221640625002,69.2705390625L23.925961640625,69.2704390625Q23.824571640625,69.2225390625,23.712431640625,69.2225390625L23.711841640625,69.2225390625Q23.625241640625,69.22263906250001,23.543731640625,69.2518390625Q23.450101640625,69.2854390625,23.376451640625,69.3522390625Q23.302791640625,69.4190390625,23.260321640625,69.5090390625Q23.212431640625,69.6104390625,23.212431640625,69.7225390625Q23.212431640625,69.7315390625,23.212751640625,69.7405390625Q23.215231640625,69.8092390625,23.236171640625,69.8747390625Q23.257111640625,69.9402390625,23.294961640625,69.9977390625Q23.332811640625,70.0551390625,23.384761640625,70.1002390625Q23.436711640625,70.1452390625,23.498901640625,70.1746390625L23.499161640625,70.1747390625L27.558631640625002,72.09203906249999L27.558931640624998,72.0921390625Q27.660331640625,72.1400390625,27.772431640625,72.1400390625L27.773031640625,72.1400390625Q27.859631640625,72.1399390625,27.941131640625002,72.1107390625Q28.034731640624997,72.0771390625,28.108431640625,72.01033906250001Q28.182031640625,71.94353906250001,28.224531640625003,71.8535390625Q28.272431640625,71.75213906249999,28.272431640625,71.6400390625Q28.272431640625,71.63103906250001,28.272131640625,71.6220390625Q28.269631640625,71.5533390625,28.248731640625,71.4878390625Q28.227731640625002,71.4223390625,28.189931640624998,71.3648390625Q28.152031640624998,71.3074390625,28.100131640625,71.2623390625Q28.048131640625,71.2173390625,27.985931640624997,71.18793906249999L27.985731640624998,71.1878390625L23.926221640625002,69.2705390625ZM22.785791640625,74.8946390625L21.770791640625,71.0596390625Q21.745341640625,70.9634390625,21.685041640625002,70.8843390625Q21.624731640625,70.8052390625,21.538761640625,70.7553390625Q21.422231640625,70.68753906250001,21.287431640625,70.68753906250001L21.279961640625,70.6876390625Q21.218711640625,70.6885390625,21.159501640625,70.7041390625Q21.079511640625,70.7253390625,21.010601640624998,70.7711390625Q20.941691640625,70.8169390625,20.891221640624998,70.8825390625Q20.840751640625,70.9481390625,20.814091640625,71.0264390625Q20.787431640625,71.1048390625,20.787431640625,71.18753906250001L20.787431640625,71.18963906249999Q20.787701640625002,71.2536390625,20.804071640625,71.3154390625L21.819071640625,75.1504390625Q21.844521640625,75.24663906250001,21.904821640625002,75.32573906249999Q21.965121640625,75.4047390625,22.051101640625,75.45473906250001Q22.167631640625,75.5225390625,22.302431640625,75.5225390625L22.309901640625,75.5224390625Q22.371151640625,75.5215390625,22.430361640625,75.5059390625Q22.510351640625,75.4847390625,22.579261640625,75.4389390625Q22.648171640625,75.3931390625,22.698641640625,75.3275390625Q22.749111640625,75.2619390625,22.775771640625,75.18363906249999Q22.802431640625,75.1052390625,22.802431640625,75.0225390625L22.802431640625,75.0204390625Q22.802161640625002,74.95643906250001,22.785791640625,74.8946390625ZM17.485371640625,75.2645390625L18.442701640625,71.7126390625Q18.459931640625,71.6487390625,18.459931640625,71.5825390625L18.459871640625,71.5748390625Q18.458611640625,71.4933390625,18.431561640625,71.4165390625Q18.404511640625,71.3396390625,18.354471640625,71.2754390625Q18.304421640625,71.2111390625,18.236571640625,71.1660390625Q18.168711640625,71.1209390625,18.090051640625,71.09973906249999Q18.026131640625,71.0825390625,17.959931640625,71.0825390625L17.952191640625,71.0826390625Q17.870741640625,71.0838390625,17.793901640625,71.1109390625Q17.717061640625,71.1379390625,17.652781640625,71.1880390625Q17.588501640625,71.23803906250001,17.543431640625,71.3059390625Q17.498361640625,71.3737390625,17.477161640625,71.4524390625L16.519823640625,75.00433906250001L16.519659640625,75.0049390625Q16.502431640625,75.06883906249999,16.502431640625,75.1350390625Q16.502431640625,75.14253906249999,16.502657640625,75.1500390625Q16.506430640625,75.2755390625,16.569051640625,75.38443906250001Q16.618653640625,75.4706390625,16.697467640625,75.53123906249999Q16.776281640625,75.5919390625,16.872310640625,75.6178390625Q16.936231640625,75.6350390625,17.002431640625,75.6350390625L17.010171640625,75.6349390625Q17.091621640625,75.6337390625,17.168461640625,75.6066390625Q17.245301640625,75.57963906250001,17.309581640625,75.52953906249999Q17.373861640625,75.47953906250001,17.418931640625,75.4116390625Q17.464001640625,75.3438390625,17.485201640625,75.2651390625L17.485371640625,75.2645390625Z" fill-rule="evenodd" fill="#0C296E" fill-opacity="1"/></g><g><path d="M15.6250439453125,16.487548828125L15.6250439453125,17.502548828125Q15.6250439453125,17.552278828125,15.644073945312499,17.598218828125Q15.6631039453125,17.644158828125,15.6982639453125,17.679328828125Q15.7334339453125,17.714488828125,15.7793739453125,17.733518828125Q15.8253139453125,17.752548828125,15.8750439453125,17.752548828125Q15.9247739453125,17.752548828125,15.9707139453125,17.733518828125Q16.0166539453125,17.714488828125,16.0518239453125,17.679328828125Q16.0869839453125,17.644158828125,16.1060139453125,17.598218828125Q16.1250439453125,17.552278828125,16.1250439453125,17.502548828125L16.1250439453125,16.487548828125Q16.1250439453125,16.437820728125,16.1060139453125,16.391878028125Q16.0869839453125,16.345934828125,16.0518239453125,16.310771828125Q16.0166539453125,16.275608828125,15.9707139453125,16.256578828125Q15.9247739453125,16.237548828125,15.8750439453125,16.237548828125Q15.8253139453125,16.237548828125,15.7793739453125,16.256578828125Q15.7334339453125,16.275608828125,15.6982639453125,16.310771828125Q15.6631039453125,16.345934828125,15.644073945312499,16.391878028125Q15.6250439453125,16.437820728125,15.6250439453125,16.487548828125ZM14.2950439453125,18.317548828125L15.3100439453125,18.317548828125Q15.3597739453125,18.317548828125,15.4057139453125,18.298518828125Q15.4516539453125,18.279488828125,15.4868239453125,18.244318828125Q15.521983945312499,18.209158828125,15.5410139453125,18.163218828125Q15.5600439453125,18.117278828125,15.5600439453125,18.067548828125Q15.5600439453125,18.017818828125,15.5410139453125,17.971878828125Q15.521983945312499,17.925928828125,15.4868239453125,17.890768828125Q15.4516539453125,17.855608828125,15.4057139453125,17.836578828125Q15.3597739453125,17.817548828125,15.3100439453125,17.817548828125L14.2950439453125,17.817548828125Q14.2453158453125,17.817548828125,14.1993731453125,17.836578828125Q14.1534299453125,17.855608828125,14.1182669453125,17.890768828125Q14.0831039453125,17.925928828125,14.0640739453125,17.971878828125Q14.0450439453125,18.017818828125,14.0450439453125,18.067548828125Q14.0450439453125,18.117278828125,14.0640739453125,18.163218828125Q14.0831039453125,18.209158828125,14.1182669453125,18.244318828125Q14.1534299453125,18.279488828125,14.1993731453125,18.298518828125Q14.2453158453125,18.317548828125,14.2950439453125,18.317548828125ZM16.3825439453125,18.317548828125L17.4550439453125,18.317548828125Q17.5047739453125,18.317548828125,17.5507139453125,18.298518828125Q17.5966539453125,18.279488828125,17.6318239453125,18.244318828125Q17.6669839453125,18.209158828125,17.6860139453125,18.163218828125Q17.7050439453125,18.117278828125,17.7050439453125,18.067548828125Q17.7050439453125,18.017818828125,17.6860139453125,17.971878828125Q17.6669839453125,17.925928828125,17.6318239453125,17.890768828125Q17.5966539453125,17.855608828125,17.5507139453125,17.836578828125Q17.5047739453125,17.817548828125,17.4550439453125,17.817548828125L16.3825439453125,17.817548828125Q16.332813945312502,17.817548828125,16.2868739453125,17.836578828125Q16.2409339453125,17.855608828125,16.2057639453125,17.890768828125Q16.1706039453125,17.925928828125,16.1515739453125,17.971878828125Q16.1325439453125,18.017818828125,16.1325439453125,18.067548828125Q16.1325439453125,18.117278828125,16.1515739453125,18.163218828125Q16.1706039453125,18.209158828125,16.2057639453125,18.244318828125Q16.2409339453125,18.279488828125,16.2868739453125,18.298518828125Q16.332813945312502,18.317548828125,16.3825439453125,18.317548828125ZM15.6250439453125,18.575048828125L15.6250439453125,19.590048828125Q15.6250439453125,19.639778828125,15.644073945312499,19.685718828125Q15.6631039453125,19.731658828125,15.6982639453125,19.766828828125Q15.7334339453125,19.801988828125,15.7793739453125,19.821018828125Q15.8253139453125,19.840048828125,15.8750439453125,19.840048828125Q15.9247739453125,19.840048828125,15.9707139453125,19.821018828125Q16.0166539453125,19.801988828125,16.0518239453125,19.766828828125Q16.0869839453125,19.731658828125,16.1060139453125,19.685718828125Q16.1250439453125,19.639778828125,16.1250439453125,19.590048828125L16.1250439453125,18.575048828125Q16.1250439453125,18.525318828125002,16.1060139453125,18.479378828125Q16.0869839453125,18.433438828125,16.0518239453125,18.398268828125Q16.0166539453125,18.363108828125,15.9707139453125,18.344078828125Q15.9247739453125,18.325048828125,15.8750439453125,18.325048828125Q15.8253139453125,18.325048828125,15.7793739453125,18.344078828125Q15.7334339453125,18.363108828125,15.6982639453125,18.398268828125Q15.6631039453125,18.433438828125,15.644073945312499,18.479378828125Q15.6250439453125,18.525318828125002,15.6250439453125,18.575048828125ZM112.6250439453125,46.940048828125L112.6250439453125,47.955048828125Q112.6250439453125,48.004748828125,112.6440439453125,48.050748828124995Q112.6630439453125,48.096648828125,112.6982439453125,48.131848828125Q112.7334439453125,48.166948828125,112.7793439453125,48.186048828124996Q112.8253439453125,48.205048828125,112.8750439453125,48.205048828125Q112.9247439453125,48.205048828125,112.9707439453125,48.186048828124996Q113.0166439453125,48.166948828125,113.0518439453125,48.131848828125Q113.0869439453125,48.096648828125,113.1060439453125,48.050748828124995Q113.1250439453125,48.004748828125,113.1250439453125,47.955048828125L113.1250439453125,46.940048828125Q113.1250439453125,46.890348828125,113.1060439453125,46.844348828125Q113.0869439453125,46.798448828125004,113.0518439453125,46.763248828125Q113.0166439453125,46.728148828125,112.9707439453125,46.709048828125Q112.9247439453125,46.690048828125,112.8750439453125,46.690048828125Q112.8253439453125,46.690048828125,112.7793439453125,46.709048828125Q112.7334439453125,46.728148828125,112.6982439453125,46.763248828125Q112.6630439453125,46.798448828125004,112.6440439453125,46.844348828125Q112.6250439453125,46.890348828125,112.6250439453125,46.940048828125ZM111.3525439453125,48.770048828125L112.3675439453125,48.770048828125Q112.4172439453125,48.770048828125,112.4632439453125,48.751048828125Q112.5091439453125,48.731948828125,112.5443439453125,48.696848828125Q112.5794439453125,48.661648828125,112.5985439453125,48.615748828125Q112.6175439453125,48.569748828125,112.6175439453125,48.520048828125Q112.6175439453125,48.470348828125,112.5985439453125,48.424348828125005Q112.5794439453125,48.378448828125,112.5443439453125,48.343248828125Q112.5091439453125,48.308148828125,112.4632439453125,48.289048828125004Q112.4172439453125,48.270048828125,112.3675439453125,48.270048828125L111.3525439453125,48.270048828125Q111.3028439453125,48.270048828125,111.2568439453125,48.289048828125004Q111.2109439453125,48.308148828125,111.1757439453125,48.343248828125Q111.1406439453125,48.378448828125,111.1215439453125,48.424348828125005Q111.1025439453125,48.470348828125,111.1025439453125,48.520048828125Q111.1025439453125,48.569748828125,111.1215439453125,48.615748828125Q111.1406439453125,48.661648828125,111.1757439453125,48.696848828125Q111.2109439453125,48.731948828125,111.2568439453125,48.751048828125Q111.3028439453125,48.770048828125,111.3525439453125,48.770048828125ZM113.4400439453125,48.770048828125L114.4550439453125,48.770048828125Q114.5050439453125,48.770048828125,114.5510439453125,48.751048828125Q114.5970439453125,48.731948828125,114.6320439453125,48.696848828125Q114.6670439453125,48.661648828125,114.6860439453125,48.615748828125Q114.7050439453125,48.569748828125,114.7050439453125,48.520048828125Q114.7050439453125,48.470348828125,114.6860439453125,48.424348828125005Q114.6670439453125,48.378448828125,114.6320439453125,48.343248828125Q114.5970439453125,48.308148828125,114.5510439453125,48.289048828125004Q114.5050439453125,48.270048828125,114.4550439453125,48.270048828125L113.4400439453125,48.270048828125Q113.3903439453125,48.270048828125,113.3443439453125,48.289048828125004Q113.2984439453125,48.308148828125,113.2632439453125,48.343248828125Q113.2281439453125,48.378448828125,113.2090439453125,48.424348828125005Q113.1900439453125,48.470348828125,113.1900439453125,48.520048828125Q113.1900439453125,48.569748828125,113.2090439453125,48.615748828125Q113.2281439453125,48.661648828125,113.2632439453125,48.696848828125Q113.2984439453125,48.731948828125,113.3443439453125,48.751048828125Q113.3903439453125,48.770048828125,113.4400439453125,48.770048828125ZM112.6250439453125,49.027548828125L112.6250439453125,50.042548828125Q112.6250439453125,50.092248828125,112.6440439453125,50.138248828125Q112.6630439453125,50.184148828125,112.6982439453125,50.219348828125Q112.7334439453125,50.254448828125,112.7793439453125,50.273548828125Q112.8253439453125,50.292548828125,112.8750439453125,50.292548828125Q112.9247439453125,50.292548828125,112.9707439453125,50.273548828125Q113.0166439453125,50.254448828125,113.0518439453125,50.219348828125Q113.0869439453125,50.184148828125,113.1060439453125,50.138248828125Q113.1250439453125,50.092248828125,113.1250439453125,50.042548828125L113.1250439453125,49.027548828125Q113.1250439453125,48.977848828125,113.1060439453125,48.931848828125Q113.0869439453125,48.885948828125,113.0518439453125,48.850748828125Q113.0166439453125,48.815648828125,112.9707439453125,48.796548828125Q112.9247439453125,48.777548828125,112.8750439453125,48.777548828125Q112.8253439453125,48.777548828125,112.7793439453125,48.796548828125Q112.7334439453125,48.815648828125,112.6982439453125,48.850748828125Q112.6630439453125,48.885948828125,112.6440439453125,48.931848828125Q112.6250439453125,48.977848828125,112.6250439453125,49.027548828125Z" fill-rule="evenodd" fill="#0C296E" fill-opacity="1"/></g><g><path d="M17.84664176875,31.936729659375Q17.54248046875,32.240891359375,17.54248046875,32.672569359375Q17.54248046875,33.104248359375,17.84664176875,33.408408359375Q18.15080346875,33.712568359375,18.58248146875,33.712568359375Q19.01256046875,33.712568359375,19.31719046875,33.408598359375Q19.62248046875,33.103978359375,19.62248046875,32.672569359375Q19.62248046875,32.240891359375,19.31832046875,31.936729659375Q19.01416046875,31.632568359375,18.58248146875,31.632568359375Q18.15080346875,31.632568359375,17.84664176875,31.936729659375ZM18.20019546875,33.054858359375Q18.04248046875,32.897138359375,18.04248046875,32.672569359375Q18.04248046875,32.447997359375,18.20019546875,32.290283359375Q18.35790946875,32.132568359375,18.58248146875,32.132568359375Q18.80705046875,32.132568359375,18.96477046875,32.290283359375Q19.12248046875,32.447997359375,19.12248046875,32.672569359375Q19.12248046875,32.896548359375004,18.96402046875,33.054658359375Q18.80577046875,33.212568359375,18.58248146875,33.212568359375Q18.35790946875,33.212568359375,18.20019546875,33.054858359375ZM53.85058046875,88.810268359375Q53.57998046875,89.082268359375,53.57998046875,89.46506835937501Q53.57998046875,89.847968359375,53.85098046875,90.119068359375Q54.12208046875,90.390068359375,54.50498046875,90.390068359375Q54.88778046875,90.390068359375,55.15978046875,90.11946835937499Q55.43248046875,89.848168359375,55.43248046875,89.46506835937501Q55.43248046875,89.082268359375,55.16188046875,88.810268359375Q54.89058046875,88.537568359375,54.50748046875,88.537568359375L54.50498046875,88.537568359375Q54.12188046875,88.537568359375,53.85058046875,88.810268359375ZM54.20458046875,89.765468359375Q54.07998046875,89.64086835937499,54.07998046875,89.46506835937501Q54.07998046875,89.28866835937501,54.20498046875,89.162968359375Q54.32978046875,89.037568359375,54.50498046875,89.037568359375L54.50748046875,89.037568359375Q54.68268046875,89.037568359375,54.80748046875,89.162968359375Q54.93248046875,89.28866835937501,54.93248046875,89.46506835937501Q54.93248046875,89.640268359375,54.80708046875,89.765068359375Q54.68138046875,89.890068359375,54.50498046875,89.890068359375Q54.32918046875,89.890068359375,54.20458046875,89.765468359375Z" fill-rule="evenodd" fill="#0C296E" fill-opacity="1"/></g><g><path d="M98.607451171875,29.45751953125L34.824951171875,29.45751953125L34.824951171875,34.98501953125L98.607451171875,34.98501953125L98.607451171875,29.45751953125Z" fill="#0C296E" fill-opacity="1"/></g><g><path d="M98.607451171875,48.197509765625L34.824951171875,48.197509765625L34.824951171875,53.725009765625L98.607451171875,53.725009765625L98.607451171875,48.197509765625Z" fill="#0C296E" fill-opacity="1"/></g><g><path d="M98.607451171875,66.905029296875L34.824951171875,66.905029296875L34.824951171875,72.432529296875L98.607451171875,72.432529296875L98.607451171875,66.905029296875Z" fill="#0C296E" fill-opacity="1"/></g><g><path d="M28.822509765625,29.709951171874998L28.822509765625,16.012451171875L104.610009765625,16.012451171875L104.610009765625,29.709951171874998L28.822509765625,29.709951171874998ZM104.110009765625,16.512451171875L29.322509765625,16.512451171875L29.322509765625,29.209951171874998L104.110009765625,29.209951171874998L104.110009765625,16.512451171875Z" fill-rule="evenodd" fill="#0C296E" fill-opacity="1"/></g><g><path d="M35.3875146484375,24.382509765625C36.3525146484375,24.382509765625,37.1375146484375,23.602509765625,37.1375146484375,22.635009765625C37.1375146484375,21.670009765625,36.3575146484375,20.885009765625,35.3900146484375,20.885009765625L35.3875146484375,20.885009765625C34.4225156484375,20.885009765625,33.6400146484375,21.670009765625,33.6400146484375,22.635009765625C33.6400146484375,23.600009765625,34.4225156484375,24.380009765625,35.3875146484375,24.382509765625Z" fill="#165DFF" fill-opacity="1"/></g><g><path d="M42.26751953125,24.382509765625C43.23251953125,24.382509765625,44.01751953125,23.602509765625,44.01751953125,22.635009765625C44.01751953125,21.670009765625,43.23751953125,20.885009765625,42.27001953125,20.885009765625L42.26751953125,20.885009765625C41.30252053125,20.885009765625,40.52001953125,21.670009765625,40.52001953125,22.635009765625C40.52001953125,23.600009765625,41.30252053125,24.380009765625,42.26751953125,24.382509765625Z" fill="#FFC60A" fill-opacity="1"/></g><g><path d="M49.20501953125,24.382509765625C50.17001953125,24.382509765625,50.95501953125,23.602509765625,50.95501953125,22.635009765625C50.95501953125,21.670009765625,50.17501953125,20.885009765625,49.20751953125,20.885009765625L49.20501953125,20.885009765625C48.24002053125,20.885009765625,47.45751953125,21.670009765625,47.45751953125,22.635009765625C47.45751953125,23.600009765625,48.24002053125,24.380009765625,49.20501953125,24.382509765625Z" fill="#165DFF" fill-opacity="1"/></g><g><path d="M83.9495363515625,21.285967765625Q83.2974853515625,21.937449765625,83.2974853515625,22.860009765625Q83.2974853515625,23.782939765625,83.9485203515625,24.433969765625Q84.5995553515625,25.085009765625,85.5224853515625,25.085009765625Q86.4439053515625,25.085009765625,87.0954353515625,24.434049765625Q87.7474853515625,23.782569765625,87.7474853515625,22.860009765625Q87.7474853515625,21.937079765625,87.0964453515625,21.286045765625Q86.4454153515625,20.635009765625,85.5224853515625,20.635009765625Q84.6010653515625,20.635009765625,83.9495363515625,21.285967765625ZM84.3020743515625,24.080419765625Q83.7974853515625,23.575829765625,83.7974853515625,22.860009765625Q83.7974853515625,22.144679765625,84.3029353515625,21.639675765625Q84.8080453515625,21.135009765625,85.5224853515625,21.135009765625Q86.2383053515625,21.135009765625,86.7428953515625,21.639598765625Q87.2474853515625,22.144189765625,87.2474853515625,22.860009765625Q87.2474853515625,23.575339765625,86.7420353515625,24.080339765625Q86.2369253515625,24.585009765625,85.5224853515625,24.585009765625Q84.8066653515625,24.585009765625,84.3020743515625,24.080419765625Z" fill-rule="evenodd" fill="#0C296E" fill-opacity="1"/></g><g><path d="M60.4024658203125,24.7449755859375L85.2334658203125,24.7449755859375L84.5574658203125,24.2878755859375Q83.79996582031251,23.7756355859375,83.79996582031251,22.8599755859375Q83.79996582031251,21.9467645859375,84.5579658203125,21.4317625859375L85.2302658203125,20.9749755859375L60.4024658203125,20.9749755859375L60.4024658203125,24.7449755859375ZM83.7675658203125,24.2449755859375L60.9024658203125,24.2449755859375L60.9024658203125,21.4749755859375L83.7685658203125,21.4749755859375Q83.29996582031251,22.0441705859375,83.29996582031251,22.8599755859375Q83.29996582031251,23.6768955859375,83.7675658203125,24.2449755859375Z" fill-rule="evenodd" fill="#0C296E" fill-opacity="1"/></g><g><path d="M85.8171958828125,24.7449755859375L92.5975048828125,24.7449755859375L92.5975048828125,20.9749755859375L85.8139748828125,20.9749755859375L86.4899678828125,21.4320735859375Q87.2475048828125,21.9443105859375,87.2475048828125,22.8599755859375Q87.2475048828125,23.7731855859375,86.4895088828125,24.2881855859375L85.8171958828125,24.7449755859375ZM92.0975048828125,21.4749755859375L87.2799318828125,21.4749755859375Q87.7475048828125,22.0430555859375,87.7475048828125,22.8599755859375Q87.7475048828125,23.6757855859375,87.2789188828125,24.2449755859375L92.0975048828125,24.2449755859375L92.0975048828125,21.4749755859375Z" fill-rule="evenodd" fill="#0C296E" fill-opacity="1"/></g><g><path d="M101.877568359375,18.4625244140625L96.632568359375,18.4625244140625L96.632568359375,19.1400244140625L101.877568359375,19.1400244140625L101.877568359375,18.4625244140625ZM101.877568359375,19.9300244140625L96.632568359375,19.9300244140625L96.632568359375,20.6075244140625L101.877568359375,20.6075244140625L101.877568359375,19.9300244140625ZM101.877568359375,21.3975244140625L96.632568359375,21.3975244140625L96.632568359375,22.0750244140625L101.877568359375,22.0750244140625L101.877568359375,21.3975244140625Z" fill="#0C296E" fill-opacity="1"/></g><g><path d="M28.822509765625,48.4324853515625L28.822509765625,34.7349853515625L104.610009765625,34.7349853515625L104.610009765625,48.4324853515625L28.822509765625,48.4324853515625ZM104.110009765625,35.2349853515625L29.322509765625,35.2349853515625L29.322509765625,47.9324853515625L104.110009765625,47.9324853515625L104.110009765625,35.2349853515625Z" fill-rule="evenodd" fill="#0C296E" fill-opacity="1"/></g><g><path d="M35.3875146484375,43.104921875C36.3525146484375,43.104921875,37.1375146484375,42.324921875,37.1375146484375,41.357421875C37.1375146484375,40.392421875,36.3575146484375,39.607421875,35.3900146484375,39.607421875L35.3875146484375,39.607421875C34.4225156484375,39.607421875,33.6400146484375,40.392421875,33.6400146484375,41.357421875C33.6400146484375,42.322421875,34.4225156484375,43.102421875,35.3875146484375,43.104921875Z" fill="#165DFF" fill-opacity="1"/></g><g><path d="M42.26751953125,43.104921875C43.23251953125,43.104921875,44.01751953125,42.324921875,44.01751953125,41.357421875C44.01751953125,40.392421875,43.23751953125,39.607421875,42.27001953125,39.607421875L42.26751953125,39.607421875C41.30252053125,39.607421875,40.52001953125,40.392421875,40.52001953125,41.357421875C40.52001953125,42.322421875,41.30252053125,43.102421875,42.26751953125,43.104921875Z" fill="#FFC60A" fill-opacity="1"/></g><g><path d="M49.20501953125,43.104921875C50.17001953125,43.104921875,50.95501953125,42.324921875,50.95501953125,41.357421875C50.95501953125,40.392421875,50.17501953125,39.607421875,49.20751953125,39.607421875L49.20501953125,39.607421875C48.24002053125,39.607421875,47.45751953125,40.392421875,47.45751953125,41.357421875C47.45751953125,42.322421875,48.24002053125,43.102421875,49.20501953125,43.104921875Z" fill="#165DFF" fill-opacity="1"/></g><g><path d="M83.9495363515625,40.0085019453125Q83.2974853515625,40.6599839453125,83.2974853515625,41.5825439453125Q83.2974853515625,42.5054739453125,83.9485203515625,43.1565039453125Q84.5995553515625,43.8075439453125,85.5224853515625,43.8075439453125Q86.4439053515625,43.8075439453125,87.0954353515625,43.1565839453125Q87.7474853515625,42.5051039453125,87.7474853515625,41.5825439453125Q87.7474853515625,40.6596139453125,87.0964453515625,40.0085799453125Q86.4454153515625,39.3575439453125,85.5224853515625,39.3575439453125Q84.6010653515625,39.3575439453125,83.9495363515625,40.0085019453125ZM84.3020743515625,42.8029539453125Q83.7974853515625,42.2983639453125,83.7974853515625,41.5825439453125Q83.7974853515625,40.8672139453125,84.3029353515625,40.3622099453125Q84.8080453515625,39.8575439453125,85.5224853515625,39.8575439453125Q86.2383053515625,39.8575439453125,86.7428953515625,40.3621329453125Q87.2474853515625,40.8667239453125,87.2474853515625,41.5825439453125Q87.2474853515625,42.2978739453125,86.7420353515625,42.8028739453125Q86.2369253515625,43.3075439453125,85.5224853515625,43.3075439453125Q84.8066653515625,43.3075439453125,84.3020743515625,42.8029539453125Z" fill-rule="evenodd" fill="#0C296E" fill-opacity="1"/></g><g><path d="M60.4024658203125,43.467509765625L85.2334658203125,43.467509765625L84.5574658203125,43.010409765625Q83.79996582031251,42.498169765625,83.79996582031251,41.582509765625Q83.79996582031251,40.669298765625,84.5579658203125,40.154296765625L85.2302658203125,39.697509765625L60.4024658203125,39.697509765625L60.4024658203125,43.467509765625ZM83.7675658203125,42.967509765625L60.9024658203125,42.967509765625L60.9024658203125,40.197509765625L83.7685658203125,40.197509765625Q83.29996582031251,40.766704765625,83.29996582031251,41.582509765625Q83.29996582031251,42.399429765625,83.7675658203125,42.967509765625Z" fill-rule="evenodd" fill="#0C296E" fill-opacity="1"/></g><g><path d="M92.5975048828125,43.467509765625L92.5975048828125,39.697509765625L92.3475048828125,39.697509765625L85.8139758828125,39.697513765625L86.4899678828125,40.154611765625Q87.2475048828125,40.666848765625,87.2475048828125,41.582509765625Q87.2475048828125,42.495719765625,86.4895088828125,43.010719765625L85.8171958828125,43.467509765625L92.5975048828125,43.467509765625ZM92.0975048828125,40.197509765625L92.0975048828125,42.967509765625L87.2789188828125,42.967509765625Q87.7475048828125,42.398319765625,87.7475048828125,41.582509765625Q87.7475048828125,40.765592765625,87.2799318828125,40.197512765625L92.0975048828125,40.197509765625Z" fill-rule="evenodd" fill="#0C296E" fill-opacity="1"/></g><g><path d="M101.877568359375,37.18505859375L96.632568359375,37.18505859375L96.632568359375,37.86255859375L101.877568359375,37.86255859375L101.877568359375,37.18505859375ZM101.877568359375,38.65255859375L96.632568359375,38.65255859375L96.632568359375,39.33005859375L101.877568359375,39.33005859375L101.877568359375,38.65255859375ZM101.877568359375,40.12005859375L96.632568359375,40.12005859375L96.632568359375,40.79755859375L101.877568359375,40.79755859375L101.877568359375,40.12005859375Z" fill="#0C296E" fill-opacity="1"/></g><g><path d="M28.822509765625,67.189931640625L28.822509765625,53.492431640625L104.610009765625,53.492431640625L104.610009765625,67.189931640625L28.822509765625,67.189931640625ZM104.110009765625,53.992431640625L29.322509765625,53.992431640625L29.322509765625,66.689931640625L104.110009765625,66.689931640625L104.110009765625,53.992431640625Z" fill-rule="evenodd" fill="#0C296E" fill-opacity="1"/></g><g><path d="M35.3875146484375,61.862490234375C36.3525146484375,61.862490234375,37.1375146484375,61.082490234375,37.1375146484375,60.114990234375C37.1375146484375,59.149990234375,36.3575146484375,58.364990234375,35.3900146484375,58.364990234375L35.3875146484375,58.364990234375C34.4225156484375,58.364990234375,33.6400146484375,59.149990234375,33.6400146484375,60.114990234375C33.6400146484375,61.079990234375,34.4225156484375,61.859990234375,35.3875146484375,61.862490234375Z" fill="#165DFF" fill-opacity="1"/></g><g><path d="M42.26751953125,61.862490234375C43.23251953125,61.862490234375,44.01751953125,61.082490234375,44.01751953125,60.114990234375C44.01751953125,59.149990234375,43.23751953125,58.364990234375,42.27001953125,58.364990234375L42.26751953125,58.364990234375C41.30252053125,58.364990234375,40.52001953125,59.149990234375,40.52001953125,60.114990234375C40.52001953125,61.079990234375,41.30252053125,61.859990234375,42.26751953125,61.862490234375Z" fill="#FFC60A" fill-opacity="1"/></g><g><path d="M49.20501953125,61.862490234375C50.17001953125,61.862490234375,50.95501953125,61.082490234375,50.95501953125,60.114990234375C50.95501953125,59.149990234375,50.17501953125,58.364990234375,49.20751953125,58.364990234375L49.20501953125,58.364990234375C48.24002053125,58.364990234375,47.45751953125,59.149990234375,47.45751953125,60.114990234375C47.45751953125,61.079990234375,48.24002053125,61.859990234375,49.20501953125,61.862490234375Z" fill="#165DFF" fill-opacity="1"/></g><g><path d="M83.9495363515625,58.765948234375Q83.2974853515625,59.417430234375,83.2974853515625,60.339990234375Q83.2974853515625,61.262920234375,83.9485203515625,61.913950234375Q84.5995553515625,62.564990234375,85.5224853515625,62.564990234375Q86.4439053515625,62.564990234375,87.0954353515625,61.914030234375Q87.7474853515625,61.262550234375,87.7474853515625,60.339990234375Q87.7474853515625,59.417060234375,87.0964453515625,58.766026234375Q86.4454153515625,58.114990234375,85.5224853515625,58.114990234375Q84.6010653515625,58.114990234375,83.9495363515625,58.765948234375ZM84.3020743515625,61.560400234375Q83.7974853515625,61.055810234375,83.7974853515625,60.339990234375Q83.7974853515625,59.624660234375,84.3029353515625,59.119656234375Q84.8080453515625,58.614990234375,85.5224853515625,58.614990234375Q86.2383053515625,58.614990234375,86.7428953515625,59.119579234375Q87.2474853515625,59.624170234375,87.2474853515625,60.339990234375Q87.2474853515625,61.055320234375,86.7420353515625,61.560320234375Q86.2369253515625,62.064990234375,85.5224853515625,62.064990234375Q84.8066653515625,62.064990234375,84.3020743515625,61.560400234375Z" fill-rule="evenodd" fill="#0C296E" fill-opacity="1"/></g><g><path d="M60.4024658203125,62.225078125L85.2334658203125,62.225078125L84.5574658203125,61.767978125Q83.79996582031251,61.255738125,83.79996582031251,60.340078125Q83.79996582031251,59.426867125,84.5579658203125,58.911865125L85.2302658203125,58.455078125L60.4024658203125,58.455078125L60.4024658203125,62.225078125ZM83.7675658203125,61.725078125L60.9024658203125,61.725078125L60.9024658203125,58.955078125L83.7685658203125,58.955078125Q83.29996582031251,59.524273125,83.29996582031251,60.340078125Q83.29996582031251,61.156998125,83.7675658203125,61.725078125Z" fill-rule="evenodd" fill="#0C296E" fill-opacity="1"/></g><g><path d="M92.5975048828125,62.2249560546875L92.5975048828125,58.4549560546875L92.3475048828125,58.4549560546875L85.8139758828125,58.4549600546875L86.4899678828125,58.9120580546875Q87.2475048828125,59.4242950546875,87.2475048828125,60.3399560546875Q87.2475048828125,61.2531660546875,86.4895088828125,61.7681660546875L85.8171958828125,62.2249560546875L92.5975048828125,62.2249560546875ZM92.0975048828125,58.9549560546875L92.0975048828125,61.7249560546875L87.2789188828125,61.7249560546875Q87.7475048828125,61.1557660546875,87.7475048828125,60.3399560546875Q87.7475048828125,59.5230390546875,87.2799318828125,58.9549590546875L92.0975048828125,58.9549560546875Z" fill-rule="evenodd" fill="#0C296E" fill-opacity="1"/></g><g><path d="M101.877568359375,55.9425048828125L96.632568359375,55.9425048828125L96.632568359375,56.6200048828125L101.877568359375,56.6200048828125L101.877568359375,55.9425048828125ZM101.877568359375,57.4100048828125L96.632568359375,57.4100048828125L96.632568359375,58.0875048828125L101.877568359375,58.0875048828125L101.877568359375,57.4100048828125ZM101.877568359375,58.8775048828125L96.632568359375,58.8775048828125L96.632568359375,59.5550048828125L101.877568359375,59.5550048828125L101.877568359375,58.8775048828125Z" fill="#0C296E" fill-opacity="1"/></g><g><path d="M28.822509765625,85.8449609375L28.822509765625,72.1474609375L104.610009765625,72.1474609375L104.610009765625,85.8449609375L28.822509765625,85.8449609375ZM104.110009765625,72.6474609375L29.322509765625,72.6474609375L29.322509765625,85.3449609375L104.110009765625,85.3449609375L104.110009765625,72.6474609375Z" fill-rule="evenodd" fill="#0C296E" fill-opacity="1"/></g><g><path d="M35.3875146484375,80.51751953125C36.3525146484375,80.51751953125,37.1375146484375,79.73751953125,37.1375146484375,78.77001953125C37.1375146484375,77.80502353125,36.3575146484375,77.02001953125,35.3900146484375,77.02001953125L35.3875146484375,77.02001953125C34.4225156484375,77.02001953125,33.6400146484375,77.80502353125,33.6400146484375,78.77001953125C33.6400146484375,79.73501953125,34.4225156484375,80.51501953125,35.3875146484375,80.51751953125Z" fill="#165DFF" fill-opacity="1"/></g><g><path d="M42.26751953125,80.51751953125C43.23251953125,80.51751953125,44.01751953125,79.73751953125,44.01751953125,78.77001953125C44.01751953125,77.80502353125,43.23751953125,77.02001953125,42.27001953125,77.02001953125L42.26751953125,77.02001953125C41.30252053125,77.02001953125,40.52001953125,77.80502353125,40.52001953125,78.77001953125C40.52001953125,79.73501953125,41.30252053125,80.51501953125,42.26751953125,80.51751953125Z" fill="#FFC60A" fill-opacity="1"/></g><g><path d="M49.20501953125,80.51751953125C50.17001953125,80.51751953125,50.95501953125,79.73751953125,50.95501953125,78.77001953125C50.95501953125,77.80502353125,50.17501953125,77.02001953125,49.20751953125,77.02001953125L49.20501953125,77.02001953125C48.24002053125,77.02001953125,47.45751953125,77.80502353125,47.45751953125,78.77001953125C47.45751953125,79.73501953125,48.24002053125,80.51501953125,49.20501953125,80.51751953125Z" fill="#165DFF" fill-opacity="1"/></g><g><path d="M83.9495363515625,77.42097753125Q83.2974853515625,78.07245953125,83.2974853515625,78.99501953125Q83.2974853515625,79.91794953125,83.9485203515625,80.56897953125Q84.5995553515625,81.22001953125,85.5224853515625,81.22001953125Q86.4439053515625,81.22001953125,87.0954353515625,80.56905953125Q87.7474853515625,79.91757953125,87.7474853515625,78.99501953125Q87.7474853515625,78.07208953125,87.0964453515625,77.42105553125Q86.4454153515625,76.77001953125,85.5224853515625,76.77001953125Q84.6010653515625,76.77001953125,83.9495363515625,77.42097753125ZM84.3020743515625,80.21542953125Q83.7974853515625,79.71083953125,83.7974853515625,78.99501953125Q83.7974853515625,78.27968953125,84.3029353515625,77.77468553125Q84.8080453515625,77.27001953125,85.5224853515625,77.27001953125Q86.2383053515625,77.27001953125,86.7428953515625,77.77460853125Q87.2474853515625,78.27919953125,87.2474853515625,78.99501953125Q87.2474853515625,79.71034953125,86.7420353515625,80.21534953125Q86.2369253515625,80.72001953125,85.5224853515625,80.72001953125Q84.8066653515625,80.72001953125,84.3020743515625,80.21542953125Z" fill-rule="evenodd" fill="#0C296E" fill-opacity="1"/></g><g><path d="M60.4024658203125,80.8799853515625L85.2334658203125,80.8799853515625L84.5574658203125,80.4228853515625Q83.79996582031251,79.9106453515625,83.79996582031251,78.9949853515625Q83.79996582031251,78.0817823515625,84.5579658203125,77.5667713515625L85.2302658203125,77.1099853515625L60.4024658203125,77.1099853515625L60.4024658203125,80.8799853515625ZM83.7675658203125,80.3799853515625L60.9024658203125,80.3799853515625L60.9024658203125,77.6099853515625L83.7685658203125,77.6099853515625Q83.29996582031251,78.1791843515625,83.29996582031251,78.9949853515625Q83.29996582031251,79.8119053515625,83.7675658203125,80.3799853515625Z" fill-rule="evenodd" fill="#0C296E" fill-opacity="1"/></g><g><path d="M92.5975048828125,80.8799853515625L92.5975048828125,77.1099933515625L92.3475048828125,77.1099933515625L85.8139808828125,77.1099843515625L86.4899668828125,77.5670823515625Q87.2475048828125,78.0793263515625,87.2475048828125,78.9949853515625Q87.2475048828125,79.9081953515625,86.4895078828125,80.4232053515625L85.8172028828125,80.8799853515625L92.5975048828125,80.8799853515625ZM92.0975048828125,77.6099923515625L92.0975048828125,80.3799853515625L87.2789158828125,80.3799853515625Q87.7475048828125,79.8107953515625,87.7475048828125,78.9949853515625Q87.7475048828125,78.1780683515625,87.2799298828125,77.6099863515625L92.0975048828125,77.6099923515625Z" fill-rule="evenodd" fill="#0C296E" fill-opacity="1"/></g><g><path d="M101.877568359375,74.5975341796875L96.632568359375,74.5975341796875L96.632568359375,75.2750341796875L101.877568359375,75.2750341796875L101.877568359375,74.5975341796875ZM101.877568359375,76.0650341796875L96.632568359375,76.0650341796875L96.632568359375,76.7425341796875L101.877568359375,76.7425341796875L101.877568359375,76.0650341796875ZM101.877568359375,77.5325341796875L96.632568359375,77.5325341796875L96.632568359375,78.2100341796875L101.877568359375,78.2100341796875L101.877568359375,77.5325341796875Z" fill="#0C296E" fill-opacity="1"/></g><g><path d="M109.547476484375,76.48993640625L100.354980484375,92.39241640624999C100.129982484375,92.72991640625,100.412483484375,93.18241640625,100.804977484375,93.18241640625L119.132446484375,93.18241640625C119.527446484375,93.18241640625,119.752446484375,92.73241640625,119.582446484375,92.39241640624999L110.389946484375,76.48994440625C110.219976484375,76.15244290625,109.712476484375,76.15244290625,109.544976484375,76.48994440625L109.547476484375,76.48993640625Z" fill="#FF950A" fill-opacity="1"/></g><g><path d="M101.6524582234375,91.8875244140625L109.71746152343749,77.9025264140625C109.8299615234375,77.7325287140625,110.0549615234375,77.7325287140625,110.1674615234375,77.9025264140625L118.23246152343751,91.8875244140625C118.3449615234375,92.0575244140625,118.23246152343751,92.2825244140625,118.0074615234375,92.2825244140625L101.8224635234375,92.2825244140625C101.7099609234375,92.2825244140625,101.5974655234375,92.0575244140625,101.6524582234375,91.8875244140625Z" fill="#FFC60A" fill-opacity="1"/></g><g><path d="M110.620029296875,88.3350344140625L109.380027296875,88.3350344140625L109.155029296875,82.2450254140625C109.155029296875,81.7950284140625,109.492531296875,81.4000244140625,110.000030296875,81.4000244140625C110.450029296875,81.4000244140625,110.845029296875,81.7950214140625,110.845029296875,82.2450254140625L110.620029296875,88.3350344140625ZM110.000023296875,90.9850344140625C110.435019296875,90.9850344140625,110.790019296875,90.6325344140625,110.790019296875,90.1950344140625C110.790019296875,89.7575344140625,110.437519296875,89.4050244140625,110.000023296875,89.4050244140625C109.562523296875,89.4050244140625,109.210021996875,89.7575344140625,109.210021996875,90.1950344140625C109.210021996875,90.6325344140625,109.562523296875,90.9850344140625,110.000023296875,90.9850344140625Z" fill="#FFFFFF" fill-opacity="1"/></g></g></svg>